<?xml version="1.0" encoding="utf-8"?>
<!-- Generator: Adobe Illustrator 24.1.1, SVG Export Plug-In . SVG Version: 6.00 Build 0)  -->
<svg version="1.1" id="Layer_1" xmlns="http://www.w3.org/2000/svg" xmlns:xlink="http://www.w3.org/1999/xlink" x="0px" y="0px"
	 viewBox="0 0 279.4 289.6" style="enable-background:new 0 0 279.4 289.6;" xml:space="preserve">
<style type="text/css">
	.st0{fill:#E53525;}
	.st1{fill:none;stroke:#FFFFFF;stroke-width:0.7339;stroke-linecap:round;}
	.st2{fill:none;stroke:#FFFFFF;stroke-width:0.7339;}
	.st3{fill:#010101;}
	.st4{fill:#414141;}
	.st5{opacity:0.102;fill:#010101;}
	.st6{fill:#B7B7B8;}
	.st7{opacity:0.149;fill:#010101;}
	.st8{opacity:0.2;fill:#676767;}
	.st9{fill:#606161;}
	.st10{opacity:0.2392;fill:#FFFFFF;}
	.st11{opacity:0.149;fill:#FFFFFF;}
	.st12{opacity:0.302;fill:#FFFFFF;}
	.st13{opacity:0.7686;fill:#353635;}
	.st14{fill:#353635;}
	.st15{opacity:0.2;fill:#FFFFFF;}
	.st16{fill:none;stroke:#FFFFFF;stroke-width:0.7123;stroke-linecap:round;}
	.st17{fill:none;stroke:#FFFFFF;stroke-width:0.7123;}
	.st18{fill:#6D6E6E;}
	.st19{fill:#7F8080;}
	.st20{opacity:0.2;fill:#606161;}
	.st21{fill:#BCA169;}
	.st22{opacity:0.2;fill:#BCA169;}
	.st23{fill:#333333;}
	.st24{fill:none;stroke:#FFFFFF;stroke-width:0.7064;stroke-linecap:round;}
	.st25{fill:none;stroke:#FFFFFF;stroke-width:0.7064;}
	.st26{fill:#232323;}
	.st27{fill:#4A4A4A;}
	.st28{opacity:0.302;fill:#3E3E3E;}
	.st29{opacity:0.4;fill:#111111;}
	.st30{opacity:0.2;fill:#010101;}
	.st31{opacity:0.502;fill:#010101;}
	.st32{opacity:0.251;fill:#010101;}
	.st33{opacity:0.251;fill:#575757;}
	.st34{fill:none;stroke:#FFFFFF;stroke-width:0.8674;stroke-linecap:round;}
	.st35{fill:none;stroke:#FFFFFF;stroke-width:0.8674;}
	.st36{fill:#FFFFFF;}
	.st37{fill:none;stroke:#FFFFFF;stroke-width:0.717;stroke-linecap:round;}
	.st38{fill:none;stroke:#FFFFFF;stroke-width:0.5859;stroke-linecap:round;}
	.st39{fill:none;stroke:#FFFFFF;stroke-width:1.437227e-02;}
	.st40{fill:none;stroke:#FFFFFF;stroke-width:1.432839e-02;}
	.st41{fill:none;stroke:#FFFFFF;stroke-width:1.174447e-02;}
	.st42{fill:none;stroke:#FFFFFF;stroke-width:0.5361;stroke-linecap:round;}
	.st43{fill:none;stroke:#FFFFFF;stroke-width:0.5378;stroke-linecap:round;}
	.st44{fill:none;stroke:#9A916C;stroke-width:1.519;}
	.st45{fill:none;stroke:#9A916C;stroke-width:1.5236;}
	.st46{fill:#DCDCDC;}
	.st47{fill:#605E5E;}
	.st48{fill:#A5A7AA;}
	.st49{fill:none;stroke:#FFFFFF;stroke-width:0.2431;stroke-linecap:round;}
</style>
<g>
	
		<rect x="30.1" y="45.2" transform="matrix(-1.836970e-16 1 -1 -1.836970e-16 293.4356 6.4421)" class="st0" width="226.9" height="209.4"/>
	<g>
		<line class="st1" x1="95.8" y1="95" x2="95.8" y2="47.3"/>
		<line class="st1" x1="146.3" y1="51.3" x2="146.3" y2="95"/>
		<line class="st1" x1="104.1" y1="39.7" x2="101.2" y2="39.7"/>
		<line class="st1" x1="110.2" y1="45.9" x2="140.6" y2="45.9"/>
		<line class="st1" x1="95.8" y1="95" x2="113.5" y2="95"/>
		<line class="st1" x1="134.1" y1="95" x2="123.2" y2="95"/>
		<line class="st1" x1="146.3" y1="95" x2="143.8" y2="95"/>
		<path class="st2" d="M106.6,42.2c0.1-0.7-0.2-1.4-0.7-1.8c-0.5-0.5-1.2-0.7-1.8-0.7"/>
		<path class="st2" d="M106.6,42.2c0,2,1.6,3.6,3.6,3.6"/>
		<rect x="96.7" y="56.4" class="st3" width="12.5" height="37.7"/>
		<rect x="113.8" y="66.9" class="st3" width="30.5" height="26.9"/>
		<path class="st4" d="M117.2,94.2v-1.3c0-0.6,0.3-1,0.7-1h2.7c0.4,0,0.7,0.5,0.7,1v1.3"/>
		<path class="st5" d="M121.1,89.8l-0.1,2.7c0,0.5-0.3,0.9-0.7,0.9c-0.3,0-1.6,0-2,0c-0.3,0-0.6-0.4-0.7-0.9l-0.1-2.8"/>
		<path class="st4" d="M137.3,94.2v-1.3c0-0.6,0.3-1,0.7-1h2.7c0.4,0,0.7,0.5,0.7,1v1.3"/>
		<path class="st5" d="M141.2,89.8l-0.1,2.7c0,0.5-0.3,0.9-0.7,0.9c-0.3,0-1.6,0-2,0s-0.6-0.4-0.7-0.9l-0.1-2.8"/>
		<rect x="112.6" y="58.9" class="st4" width="31.7" height="4.6"/>
		<rect x="125.9" y="53" class="st6" width="1.3" height="5.6"/>
		<rect x="122.1" y="53" class="st6" width="1.3" height="5.6"/>
		<rect x="118.3" y="53" class="st6" width="1.3" height="5.6"/>
		<rect x="114.4" y="53" class="st6" width="1.3" height="5.6"/>
		<rect x="141.8" y="53" class="st6" width="1.3" height="5.6"/>
		<rect x="138" y="53" class="st6" width="1.3" height="5.6"/>
		<rect x="134.2" y="53" class="st6" width="1.3" height="5.6"/>
		<rect x="130.3" y="53" class="st6" width="1.3" height="5.6"/>
		<polygon class="st7" points="128.1,58.3 127.6,58.3 127.6,58 125.5,58 125.5,58.3 123.8,58.3 123.8,58 121.6,58 121.6,58.3 
			120,58.3 120,58 117.8,58 117.8,58.3 116.1,58.3 116.1,58 114,58 114,58.3 113.6,58.3 113.6,61.4 128.1,61.4 		"/>
		<polygon class="st7" points="144,58.3 143.6,58.3 143.6,58 141.4,58 141.4,58.3 139.7,58.3 139.7,58 137.6,58 137.6,58.3 
			135.9,58.3 135.9,58 133.8,58 133.8,58.3 132.1,58.3 132.1,58 129.9,58 129.9,58.3 129.6,58.3 129.6,61.4 144,61.4 		"/>
		<rect x="114.1" y="58.5" class="st6" width="1.8" height="0.4"/>
		<rect x="118" y="58.5" class="st6" width="1.8" height="0.4"/>
		<rect x="121.8" y="58.5" class="st6" width="1.8" height="0.4"/>
		<rect x="125.6" y="58.5" class="st6" width="1.8" height="0.4"/>
		<rect x="125.9" y="58.7" class="st6" width="1.3" height="2.6"/>
		<rect x="122.1" y="58.7" class="st6" width="1.3" height="2.6"/>
		<rect x="118.3" y="58.7" class="st6" width="1.3" height="2.6"/>
		<rect x="114.4" y="58.7" class="st6" width="1.3" height="2.6"/>
		<rect x="113.5" y="60.5" class="st7" width="15.4" height="2.3"/>
		<rect x="130.1" y="58.5" class="st6" width="1.8" height="0.4"/>
		<rect x="133.9" y="58.5" class="st6" width="1.8" height="0.4"/>
		<rect x="137.7" y="58.5" class="st6" width="1.8" height="0.4"/>
		<rect x="141.5" y="58.5" class="st6" width="1.8" height="0.4"/>
		<rect x="141.8" y="58.7" class="st6" width="1.3" height="2.6"/>
		<rect x="138" y="58.7" class="st6" width="1.3" height="2.6"/>
		<rect x="134.2" y="58.7" class="st6" width="1.3" height="2.6"/>
		<rect x="130.3" y="58.7" class="st6" width="1.3" height="2.6"/>
		<rect x="129.4" y="60.5" class="st7" width="15.4" height="2.3"/>
		<path class="st8" d="M144.2,42.1l-1.9,3h-30.6l-1.8-2.8h-2.9l-1.8-3.2H99v3.4c0,0,1.9,0,2.4,0c0.4,0,0.4,0.6,0,0.6h-0.4
			c-0.5,0-0.6,0.1-0.6,0.4v1.3c0,0.3,0.2,0.4,0.6,0.4h0.4c0.4,0,0.4,0.6,0,0.6h-5.1V50h50.6v-7.9H144.2z"/>
		<path class="st9" d="M143.6,60.2c0,0.4-0.3,0.7-0.7,0.7h-12.2c-0.4,0-0.7-0.3-0.7-0.7v-7.5c0-0.4,0.3-0.7,0.7-0.7h12.2
			c0.4,0,0.7,0.3,0.7,0.7V60.2z M127.6,60.2c0,0.4-0.3,0.7-0.7,0.7l-12.2,0c-0.4,0-0.7-0.3-0.7-0.7v-7.5c0-0.4,0.3-0.7,0.7-0.7h12.2
			c0.4,0,0.7,0.3,0.7,0.7L127.6,60.2L127.6,60.2z M104.9,60.9h0.5c0.2,0,0.4,0.2,0.4,0.3c0,0.2-0.1,0.3-0.2,0.3
			c-0.1,0-0.2,0.2-0.2,0.4v16.2c0,0.2-0.2,0.4-0.4,0.4h-8.3V58.1h1.6c0.2,0,0.4,0.2,0.4,0.4l1.5,10c0,0.2-0.1,0.5-0.2,0.6l-0.6,0.6
			c-0.1,0.1-0.3,0.4-0.3,0.6v3.4c0,0.2,0.2,0.4,0.4,0.4h4.5c0.2,0,0.4-0.2,0.4-0.4v-3.2c0-0.2-0.1-0.5-0.3-0.6l-1.3-1.1
			c-0.2-0.1-0.3-0.4-0.3-0.6l-0.8-9.8c0-0.2,0.1-0.4,0.3-0.4c0,0,3.2,0,3.4,0c0.1,0,0.2,0.2,0.2,0.3c0,0.2-0.2,0.3-0.4,0.3l-0.5,0
			c-0.2,0-0.4,0.2-0.4,0.4v1.4C104.6,60.8,104.7,60.9,104.9,60.9z M144.2,42.5l-1.9,3l-30.6,0l-1.8-2.8l-2.9,0l-1.8-3.2H99v3.4
			c0,0,1.9,0,2.4,0c0.4,0,0.4,0.6,0,0.6l-0.4,0c-0.5,0-0.6,0.1-0.6,0.4v1.3c0,0.3,0.2,0.4,0.6,0.4h0.4c0.4,0,0.4,0.6,0,0.6h-5.1
			v47.9h4.9l0.1-0.8c0-0.2,0.2-0.4,0.4-0.4h0.2c0.2,0,0.4,0.2,0.4,0.4l0.1,0.8h13.8L115.6,70c0-0.4,0.2-0.7,0.5-0.7
			c0.3,0,0.6,0.3,0.6,0.7l1.1,22.2c0,0.4,0.3,0.7,0.6,0.7h1.7c0.3,0,0.6-0.3,0.6-0.7l1.1-22.2c0-0.4,0.3-0.7,0.6-0.7
			c0.3,0,0.5,0.3,0.5,0.7l-0.7,24.1h14.1L135.7,70c0-0.4,0.2-0.7,0.5-0.7c0.3,0,0.6,0.3,0.6,0.7l1.1,22.2c0,0.4,0.3,0.7,0.6,0.7h1.7
			c0.3,0,0.6-0.3,0.6-0.7l1.1-22.2c0-0.4,0.3-0.7,0.6-0.7c0.3,0,0.5,0.3,0.5,0.7l-0.7,24.1h4.5l0-51.7H144.2z"/>
		<rect x="96.6" y="46.3" class="st10" width="1.3" height="11.8"/>
		<rect x="99.4" y="39.6" class="st10" width="1.8" height="3.4"/>
		<rect x="96.6" y="78.6" class="st10" width="1.3" height="15.6"/>
		<rect x="145.7" y="42.5" class="st11" width="0.9" height="51.7"/>
		<path class="st10" d="M99.1,58.3l1.5,10c0,0,0,0,0,0v0c0,0.2-0.1,0.6-0.2,0.8l-0.1-0.1l0.1,0.1l-0.6,0.7c0,0,0,0,0,0
			c-0.1,0.1-0.2,0.4-0.2,0.5v3c0,0.1-0.1,0.2-0.2,0.2c-0.1,0-0.2-0.1-0.2-0.2v-3c0-0.2,0.1-0.6,0.3-0.8l0.1,0.1l-0.1-0.1l0.6-0.7
			c0,0,0,0,0,0c0.1-0.1,0.2-0.3,0.2-0.5l0.2,0l-0.2,0l-1.5-10c0-0.1,0-0.2,0.1-0.2C99.1,58.2,99.1,58.2,99.1,58.3z"/>
		<rect x="96.6" y="58.1" class="st10" width="0.2" height="20.5"/>
		<path class="st11" d="M121.8,70c0,0-1.1,21.4-1.1,22c0,0.3-0.1,0.5-0.2,0.6c-0.1,0.1-0.2,0.1-0.2,0.1c-0.1,0-0.1,0-0.1-0.1
			c0-0.1,0-0.1,0.1-0.1c0,0,0,0,0.1,0c0.1-0.1,0.1-0.2,0.2-0.5c0.1-0.6,1.1-22,1.1-22c0-0.1,0.1-0.1,0.1-0.1S121.8,69.9,121.8,70z"
			/>
		<path class="st11" d="M117,69.9c0,0,1.1,21.5,1.1,22.1c0,0.3,0.1,0.4,0.2,0.5c0,0,0,0,0,0c0.1,0,0.1,0.1,0.1,0.1
			c0,0.1-0.1,0.1-0.1,0.1c0,0-0.1,0-0.2-0.1c-0.1-0.1-0.2-0.3-0.2-0.6c-0.1-0.6-1.1-22.1-1.1-22.1c0-0.1,0.1-0.1,0.1-0.1
			S117,69.8,117,69.9z"/>
		<path class="st11" d="M141.9,70c0,0-1.1,21.4-1.1,22c0,0.3-0.1,0.5-0.2,0.6c-0.1,0.1-0.2,0.1-0.2,0.1c-0.1,0-0.1,0-0.1-0.1
			c0-0.1,0-0.1,0.1-0.1c0,0,0,0,0.1,0c0.1-0.1,0.1-0.2,0.2-0.5c0.1-0.6,1.1-22,1.1-22c0-0.1,0.1-0.1,0.1-0.1
			C141.9,69.8,141.9,69.9,141.9,70z"/>
		<path class="st11" d="M137.1,69.9c0,0,1.1,21.5,1.1,22.1c0,0.3,0.1,0.4,0.2,0.5c0,0,0,0,0,0c0.1,0,0.1,0.1,0.1,0.1
			c0,0.1-0.1,0.1-0.1,0.1c0,0-0.1,0-0.2-0.1c-0.1-0.1-0.2-0.3-0.2-0.6c-0.1-0.6-1.1-22.1-1.1-22.1c0-0.1,0.1-0.1,0.1-0.1
			C137,69.8,137.1,69.8,137.1,69.9z"/>
		<path class="st12" d="M114,52.6v7.6c0,0.4,0.3,0.7,0.7,0.7h12.2c0.4,0,0.7-0.3,0.7-0.7v-7.6c0-0.1,0.1-0.1,0.1-0.1
			c0.1,0,0.1,0.1,0.1,0.1v7.6c0,0.5-0.5,1-1,1h-12.2c-0.5,0-1-0.5-1-1v-7.6c0-0.1,0.1-0.1,0.1-0.1C113.9,52.5,114,52.6,114,52.6z"/>
		<path class="st13" d="M114.7,51.7h12.4c0.1,0,0.1,0.1,0.1,0.1c0,0.1-0.1,0.1-0.1,0.1h-12.4c-0.1,0-0.1-0.1-0.1-0.1
			C114.6,51.7,114.6,51.7,114.7,51.7z"/>
		<path class="st12" d="M129.9,52.6v7.6c0,0.4,0.3,0.7,0.7,0.7h12.2c0.4,0,0.7-0.3,0.7-0.7v-7.6c0-0.1,0.1-0.1,0.1-0.1
			c0.1,0,0.1,0.1,0.1,0.1v7.6c0,0.5-0.5,1-1,1h-12.2c-0.5,0-1-0.5-1-1v-7.6c0-0.1,0.1-0.1,0.1-0.1S129.9,52.6,129.9,52.6z"/>
		<path class="st13" d="M130.6,51.7H143c0.1,0,0.1,0.1,0.1,0.1c0,0.1-0.1,0.1-0.1,0.1h-12.4c-0.1,0-0.1-0.1-0.1-0.1
			C130.5,51.7,130.6,51.7,130.6,51.7z"/>
		<rect x="97.1" y="58.4" class="st10" width="0.7" height="20.2"/>
		<path class="st11" d="M115.6,70l0.7,23.7c0,0.1-0.1,0.1-0.1,0.1c-0.1,0-0.1-0.1-0.1-0.1L115.3,70c0-0.1,0.1-0.1,0.1-0.1
			C115.5,69.9,115.6,69.9,115.6,70z"/>
		<path class="st11" d="M123.2,70l-0.7,23.7c0,0.1-0.1,0.1-0.1,0.1c-0.1,0-0.1-0.1-0.1-0.1l0.7-23.7c0-0.1,0.1-0.1,0.1-0.1
			C123.1,69.9,123.2,69.9,123.2,70z"/>
		<path class="st11" d="M135.7,70l0.7,23.7c0,0.1-0.1,0.1-0.1,0.1c-0.1,0-0.1-0.1-0.1-0.1L135.5,70c0-0.1,0.1-0.1,0.1-0.1
			C135.6,69.9,135.7,69.9,135.7,70z"/>
		<path class="st11" d="M143.3,70l-0.7,23.7c0,0.1-0.1,0.1-0.1,0.1c-0.1,0-0.1-0.1-0.1-0.1l0.7-23.7c0-0.1,0.1-0.1,0.1-0.1
			C143.3,69.9,143.3,69.9,143.3,70z"/>
		<rect x="101.6" y="74" class="st4" width="0.3" height="4.5"/>
		<rect x="101.6" y="74" class="st14" width="0.3" height="0.2"/>
		<rect x="101.6" y="78.4" class="st14" width="0.3" height="0.2"/>
		<path class="st15" d="M105.2,78.5c0.1,0,0.2-0.1,0.2-0.2V62.1c0-0.2,0.1-0.5,0.3-0.5v0.3c0,0,0,0.1,0,0.2v16.2
			c0,0.3-0.2,0.5-0.5,0.5V78.5z"/>
		<path class="st10" d="M105.4,60.9h-0.5c-0.2,0-0.4-0.2-0.4-0.4v-1.4c0-0.2,0.2-0.4,0.4-0.4h0.5"/>
		<path class="st12" d="M105.3,39.6l1.8,3.2l-0.1,0.1v-0.1h2.9h0.1l0,0.1l1.8,2.8l-0.1,0.1v-0.1h30.7v0.1l-0.1-0.1l1.9-3
			c0-0.1,0.1-0.1,0.2,0c0.1,0,0.1,0.1,0,0.2l-1.9,3l0,0.1h-0.1h-30.7h-0.1l0-0.1l-1.8-2.8l0.1-0.1V43H107H107l0-0.1l-1.8-3.2
			c0-0.1,0-0.1,0-0.2C105.2,39.5,105.3,39.6,105.3,39.6z"/>
		<path class="st10" d="M101.1,43.6c-0.5,0-0.6,0.1-0.6,0.4v1.3c0,0.3,0.2,0.4,0.6,0.4V43.6z"/>
		<g>
			<line class="st16" x1="68" y1="52.8" x2="68" y2="44"/>
			<line class="st16" x1="71.5" y1="39.5" x2="82.3" y2="39.5"/>
			<line class="st16" x1="85.8" y1="44.1" x2="85.8" y2="52.8"/>
			<line class="st16" x1="82.3" y1="57.3" x2="71.5" y2="57.3"/>
			<circle class="st17" cx="76.9" cy="48.4" r="4.5"/>
			<rect x="68" y="39.5" class="st11" width="17.8" height="17.8"/>
			<polygon class="st18" points="82.5,39.9 70.7,39.9 67.9,42.7 67.9,54.5 70.7,57.4 82.5,57.4 85.4,54.5 85.4,42.7 			"/>
			<rect x="66.5" y="42.7" class="st18" width="20.3" height="11.8"/>
			<rect x="70.7" y="38.5" class="st18" width="11.8" height="20.3"/>
			<polygon class="st19" points="82,40.8 71.3,40.8 68.8,43.3 68.8,54 71.3,56.5 82,56.5 84.5,54 84.5,43.3 			"/>
			<polygon class="st15" points="69.3,53.6 71.7,56 71.6,56.1 71.6,55.9 81.7,55.9 81.7,56.1 81.6,56 84,53.6 84.1,53.7 83.9,53.7 
				83.9,43.6 84.2,43.6 84.2,53.7 84.2,53.7 84.2,53.8 81.8,56.2 81.8,56.2 81.7,56.2 71.6,56.2 71.5,56.2 71.5,56.2 69.1,53.8 			
				"/>
			<polygon class="st20" points="84,43.7 81.6,41.3 81.7,41.2 81.7,41.3 71.6,41.3 71.6,41.2 71.7,41.3 69.3,43.7 69.2,43.6 
				69.3,43.6 69.3,53.7 69,53.7 69,43.6 69,43.5 69.1,43.5 71.5,41.1 71.5,41 71.6,41 81.7,41 81.8,41 81.8,41.1 84.2,43.5 			"/>
			<path class="st21" d="M81.2,48.6c0,2.5-2.1,4.6-4.6,4.6c-2.5,0-4.6-2.1-4.6-4.6c0-2.5,2.1-4.6,4.6-4.6
				C79.2,44,81.2,46.1,81.2,48.6z"/>
			<path class="st9" d="M71.7,48.6c0,2.7,2.2,4.9,4.9,4.9c2.7,0,4.9-2.2,4.9-4.9c0-2.7-2.2-4.9-4.9-4.9
				C73.9,43.7,71.7,45.9,71.7,48.6z M72.3,48.6c0-2.4,1.9-4.3,4.3-4.3c2.4,0,4.3,1.9,4.3,4.3c0,2.4-1.9,4.3-4.3,4.3
				C74.3,52.9,72.3,51,72.3,48.6"/>
			<path class="st22" d="M79.3,45.9c1.5,1.5,1.5,3.9,0,5.4c-1.5,1.5-3.9,1.5-5.4,0"/>
			<path class="st15" d="M79.6,45.7c1.6,1.6,1.6,4.3,0,5.9l0,0l0,0c-1.6,1.6-4.3,1.6-5.9,0l0.5-0.5c1.4,1.4,3.6,1.4,5,0l0.2,0.2
				l-0.2-0.2c1.4-1.4,1.4-3.6,0-5L79.6,45.7z"/>
			<path class="st22" d="M73.9,51.3c-1.5-1.5-1.5-3.9,0-5.4c1.5-1.5,3.9-1.5,5.4,0"/>
			<path class="st20" d="M73.7,51.6c-1.6-1.6-1.6-4.3,0-5.9l0,0l0,0c1.6-1.6,4.3-1.6,5.9,0l-0.5,0.5c-1.4-1.4-3.6-1.4-5,0l-0.2-0.2
				l0.2,0.2c-1.4,1.4-1.4,3.6,0,5L73.7,51.6z"/>
		</g>
		<rect x="98.4" y="173.2" class="st23" width="34.7" height="36.3"/>
		<rect x="194.5" y="159" class="st23" width="15.8" height="24.3"/>
		<rect x="206.4" y="241.5" class="st23" width="10.4" height="8.8"/>
		<rect x="203.9" y="89.8" class="st23" width="14" height="23.3"/>
		<rect x="208.2" y="126.4" class="st23" width="6.2" height="10.2"/>
		<g>
			<line class="st24" x1="192.2" y1="237" x2="192.2" y2="212.1"/>
			<line class="st24" x1="250.3" y1="237" x2="250.3" y2="231.5"/>
			<line class="st24" x1="250.3" y1="231.5" x2="250.3" y2="217.6"/>
			<line class="st24" x1="250.3" y1="217.6" x2="250.3" y2="212.1"/>
			<line class="st24" x1="250.3" y1="231.5" x2="235" y2="231.5"/>
			<path class="st25" d="M225,224.5c-0.3,3.7,4.2,6.8,10,6.9"/>
			<path class="st25" d="M235,217.6c-5.8,0.2-10.2,3.3-10,6.9"/>
			<line class="st24" x1="235" y1="217.6" x2="250.3" y2="217.6"/>
			<line class="st24" x1="250.3" y1="237" x2="243.7" y2="237"/>
			<line class="st24" x1="226.3" y1="237" x2="217.1" y2="237"/>
			<line class="st24" x1="199.2" y1="237" x2="192.2" y2="237"/>
			<rect x="186.9" y="224" class="st11" width="3.1" height="1.1"/>
			<rect x="186.9" y="231" class="st11" width="3.1" height="1.1"/>
			<rect x="194.9" y="212.9" class="st26" width="50.7" height="23.2"/>
			<rect x="195.6" y="234" class="st27" width="49.1" height="1.6"/>
			<rect x="195.6" y="228.7" class="st28" width="49.1" height="5.2"/>
			<rect x="195.6" y="213.4" class="st3" width="50.7" height="1.6"/>
			<rect x="195.6" y="215" class="st29" width="50.7" height="5.7"/>
			<rect x="194.9" y="212.9" class="st30" width="0.9" height="23.2"/>
			<rect x="199.1" y="212.9" class="st31" width="0.4" height="23.2"/>
			<rect x="240.3" y="212.9" class="st32" width="2" height="23.2"/>
			<path class="st32" d="M241.8,231.9v-14.7h-20.5c-6.4,0-11.6,3.3-11.6,7.4c0,4.1,5.2,7.4,11.6,7.4L241.8,231.9z"/>
			<path class="st33" d="M241.8,232l-20.5,0c-6.5,0-11.8-3.4-11.8-7.5c0-4.1,5.3-7.5,11.8-7.5h20.5h0.2v0.1v14.7v0.1H241.8z
				 M241.6,231.9v-14.7h0.2v0.1h-20.5c-6.3,0-11.4,3.2-11.4,7.2c0,4,5.1,7.2,11.4,7.2v0.1l0-0.1l20.5,0v0.1H241.6z"/>
			<path class="st26" d="M241.8,231.9v-14.7h-20.5c-6.4,0-11.6,3.3-11.6,7.4c0,4.1,5.2,7.4,11.6,7.4L241.8,231.9z"/>
			<rect x="240.7" y="212.1" class="st26" width="11.8" height="24.9"/>
			<rect x="192.3" y="221.7" class="st18" width="2.6" height="5.6"/>
			<rect x="193.4" y="219.1" class="st27" width="1.5" height="11"/>
		</g>
		<g>
			<line class="st34" x1="219.7" y1="83.1" x2="176.1" y2="83.1"/>
			<line class="st34" x1="219.7" y1="33" x2="210" y2="33"/>
			<line class="st34" x1="210" y1="33" x2="185.8" y2="33"/>
			<line class="st34" x1="185.8" y1="33" x2="176.1" y2="33"/>
			<line class="st34" x1="210" y1="33" x2="210" y2="46.1"/>
			<path class="st35" d="M197.9,54.8c6.4,0.2,11.8-3.6,12.1-8.6"/>
			<path class="st35" d="M185.8,46.1c0.3,5,5.7,8.8,12.1,8.6"/>
			<line class="st34" x1="185.8" y1="46.1" x2="185.8" y2="33"/>
			<line class="st34" x1="219.7" y1="33" x2="219.7" y2="38.6"/>
			<line class="st34" x1="219.7" y1="53.7" x2="219.7" y2="61.6"/>
			<line class="st34" x1="219.7" y1="77" x2="219.7" y2="83.1"/>
			<rect x="196.9" y="85" class="st11" width="2" height="2.7"/>
			<rect x="209.2" y="85" class="st11" width="2" height="2.7"/>
			<rect x="177.6" y="36.9" class="st26" width="40.5" height="43.8"/>
			<rect x="214.4" y="37.7" class="st27" width="2.8" height="42.4"/>
			<rect x="205.2" y="37.7" class="st28" width="9.2" height="42.4"/>
			<rect x="178.5" y="36.3" class="st3" width="2.8" height="43.8"/>
			<rect x="181.2" y="36.3" class="st29" width="9.9" height="43.8"/>
			<rect x="177.6" y="79.9" class="st30" width="40.5" height="0.8"/>
			<rect x="177.6" y="76.8" class="st31" width="40.5" height="0.3"/>
			<rect x="177.6" y="39.8" class="st32" width="40.5" height="1.7"/>
			<path class="st32" d="M210.8,40.2H185v17.7c0,5.5,5.8,10,12.9,10c7.1,0,12.9-4.5,12.9-10L210.8,40.2z"/>
			<path class="st33" d="M211,40.2l0,17.7c0,5.6-5.9,10.2-13.1,10.2c-7.2,0-13.1-4.6-13.1-10.2V40.2v-0.2h0.2h25.7h0.2V40.2z
				 M210.8,40.4H185v-0.2h0.2v17.7c0,5.5,5.6,9.9,12.7,9.9c7,0,12.7-4.4,12.7-9.9h0.2l-0.2,0l0-17.7h0.2V40.4z"/>
			<path class="st26" d="M210.8,40.2H185v17.7c0,5.5,5.8,10,12.9,10c7.1,0,12.9-4.5,12.9-10L210.8,40.2z"/>
			<rect x="176.1" y="31" class="st26" width="43.5" height="10.2"/>
			<rect x="193" y="80.7" class="st18" width="9.7" height="2.3"/>
			<rect x="188.3" y="80.7" class="st27" width="19.1" height="1.3"/>
		</g>
		<circle class="st36" cx="239" cy="46.9" r="6.7"/>
		<circle class="st36" cx="239" cy="254.4" r="6.7"/>
		<circle class="st36" cx="46.9" cy="46.3" r="6.7"/>
		<circle class="st36" cx="46.9" cy="254.4" r="6.7"/>
		<line class="st37" x1="35.6" y1="127.4" x2="35.6" y2="65.6"/>
		<line class="st38" x1="63.9" y1="106.3" x2="63.9" y2="65.3"/>
		<line class="st38" x1="62.5" y1="63.8" x2="63.9" y2="65.3"/>
		<line class="st37" x1="35.6" y1="65.6" x2="37.4" y2="63.8"/>
		<path class="st36" d="M59.6,68.5c0,0.1,0,0.1-0.1,0.1c0,0-0.1,0.1-0.1,0.1h-0.6v2.4h0.6c0.1,0,0.1,0,0.1,0.1c0,0,0.1,0.1,0.1,0.1
			c0,0.1,0,0.1-0.1,0.1c0,0-0.1,0.1-0.1,0.1h-1v-2.8H58v0.8c0,0.1,0,0.1-0.1,0.1c0,0-0.1,0.1-0.1,0.1c-0.1,0-0.1,0-0.1-0.1
			c0,0-0.1-0.1-0.1-0.1v-1.1c0-0.1,0-0.1,0.1-0.1c0,0,0.1-0.1,0.1-0.1h1.7c0.1,0,0.1,0,0.1,0.1C59.6,68.4,59.6,68.4,59.6,68.5z"/>
		<path class="st39" d="M59.6,68.5c0,0.1,0,0.1-0.1,0.1c0,0-0.1,0.1-0.1,0.1h-0.6v2.4h0.6c0.1,0,0.1,0,0.1,0.1c0,0,0.1,0.1,0.1,0.1
			c0,0.1,0,0.1-0.1,0.1c0,0-0.1,0.1-0.1,0.1h-1v-2.8H58v0.8c0,0.1,0,0.1-0.1,0.1c0,0-0.1,0.1-0.1,0.1c-0.1,0-0.1,0-0.1-0.1
			c0,0-0.1-0.1-0.1-0.1v-1.1c0-0.1,0-0.1,0.1-0.1c0,0,0.1-0.1,0.1-0.1h1.7c0.1,0,0.1,0,0.1,0.1C59.6,68.4,59.6,68.4,59.6,68.5z"/>
		<path class="st36" d="M59.6,77.3v1.4c0,0.1,0,0.2-0.1,0.3c-0.1,0.1-0.2,0.1-0.3,0.1H58v1h1.4c0.1,0,0.1,0,0.1,0.1
			c0,0,0.1,0.1,0.1,0.1c0,0.1,0,0.1-0.1,0.1c0,0-0.1,0.1-0.1,0.1H58c-0.1,0-0.2,0-0.3-0.1c-0.1-0.1-0.1-0.2-0.1-0.3v-1
			c0-0.1,0-0.2,0.1-0.3c0.1-0.1,0.2-0.1,0.3-0.1h1.2v-1h-1.4c-0.1,0-0.1,0-0.1-0.1c0,0-0.1-0.1-0.1-0.1c0-0.1,0-0.1,0.1-0.1
			c0,0,0.1-0.1,0.1-0.1H59.6z"/>
		<path class="st39" d="M59.6,77.3v1.4c0,0.1,0,0.2-0.1,0.3c-0.1,0.1-0.2,0.1-0.3,0.1H58v1h1.4c0.1,0,0.1,0,0.1,0.1
			c0,0,0.1,0.1,0.1,0.1c0,0.1,0,0.1-0.1,0.1c0,0-0.1,0.1-0.1,0.1H58c-0.1,0-0.2,0-0.3-0.1s-0.1-0.2-0.1-0.3v-1c0-0.1,0-0.2,0.1-0.3
			s0.2-0.1,0.3-0.1h1.2v-1h-1.4c-0.1,0-0.1,0-0.1-0.1c0,0-0.1-0.1-0.1-0.1c0-0.1,0-0.1,0.1-0.1c0,0,0.1-0.1,0.1-0.1H59.6z"/>
		<path class="st36" d="M59.6,86.4c0,0.1,0,0.1-0.1,0.1c0,0-0.1,0.1-0.1,0.1H58v0.8c0,0.1,0,0.1,0.1,0.1c0,0,0.1,0.1,0.1,0.1H59
			c0.1,0,0.1,0,0.1,0.1c0,0,0.1,0.1,0.1,0.1s0,0.1-0.1,0.1c0,0-0.1,0.1-0.1,0.1h-0.8c-0.1,0-0.1,0-0.1,0.1c0,0-0.1,0.1-0.1,0.1V89
			h1.4c0.1,0,0.1,0,0.1,0.1c0,0,0.1,0.1,0.1,0.1c0,0.1,0,0.1-0.1,0.1c0,0-0.1,0.1-0.1,0.1H58c-0.1,0-0.2,0-0.3-0.1
			c-0.1-0.1-0.1-0.2-0.1-0.3v-0.8c0-0.2,0.1-0.3,0.2-0.4c-0.1-0.1-0.2-0.3-0.2-0.4v-0.8c0-0.1,0-0.2,0.1-0.3
			c0.1-0.1,0.2-0.1,0.3-0.1h1.4c0.1,0,0.1,0,0.1,0.1C59.6,86.3,59.6,86.4,59.6,86.4z"/>
		<path class="st39" d="M59.6,86.4c0,0.1,0,0.1-0.1,0.1s-0.1,0.1-0.1,0.1H58v0.8c0,0.1,0,0.1,0.1,0.1c0,0,0.1,0.1,0.1,0.1H59
			c0.1,0,0.1,0,0.1,0.1s0.1,0.1,0.1,0.1c0,0.1,0,0.1-0.1,0.1c0,0-0.1,0.1-0.1,0.1h-0.8c-0.1,0-0.1,0-0.1,0.1c0,0-0.1,0.1-0.1,0.1V89
			h1.4c0.1,0,0.1,0,0.1,0.1c0,0,0.1,0.1,0.1,0.1c0,0.1,0,0.1-0.1,0.1c0,0-0.1,0.1-0.1,0.1H58c-0.1,0-0.2,0-0.3-0.1s-0.1-0.2-0.1-0.3
			v-0.8c0-0.2,0.1-0.3,0.2-0.4c-0.1-0.1-0.2-0.3-0.2-0.4v-0.8c0-0.1,0-0.2,0.1-0.3s0.2-0.1,0.3-0.1h1.4c0.1,0,0.1,0,0.1,0.1
			C59.6,86.3,59.6,86.4,59.6,86.4z"/>
		<path class="st36" d="M59.5,96.2v2c0,0.1,0,0.1-0.1,0.1c0,0-0.1,0.1-0.1,0.1s-0.1,0-0.1-0.1c0,0-0.1-0.1-0.1-0.1v-1.6h-0.8v1.2
			c0,0.1,0,0.1-0.1,0.1c0,0-0.1,0.1-0.1,0.1c-0.1,0-0.1,0-0.1-0.1c0,0-0.1-0.1-0.1-0.1v-1.2c-0.1,0-0.1,0-0.1-0.1s-0.1-0.1-0.1-0.1
			c0-0.1,0-0.1,0.1-0.1c0,0,0.1-0.1,0.1-0.1v-0.8c0-0.1,0-0.1,0.1-0.1c0,0,0.1-0.1,0.1-0.1c0.1,0,0.1,0,0.1,0.1c0,0,0.1,0.1,0.1,0.1
			v0.8H59.5z"/>
		<path class="st39" d="M59.5,96.2v2c0,0.1,0,0.1-0.1,0.1c0,0-0.1,0.1-0.1,0.1c-0.1,0-0.1,0-0.1-0.1c0,0-0.1-0.1-0.1-0.1v-1.6h-0.8
			v1.2c0,0.1,0,0.1-0.1,0.1c0,0-0.1,0.1-0.1,0.1c-0.1,0-0.1,0-0.1-0.1c0,0-0.1-0.1-0.1-0.1v-1.2c-0.1,0-0.1,0-0.1-0.1
			c0,0-0.1-0.1-0.1-0.1c0-0.1,0-0.1,0.1-0.1c0,0,0.1-0.1,0.1-0.1v-0.8c0-0.1,0-0.1,0.1-0.1c0,0,0.1-0.1,0.1-0.1c0.1,0,0.1,0,0.1,0.1
			c0,0,0.1,0.1,0.1,0.1v0.8H59.5z"/>
		<path class="st36" d="M59.6,104.5c0,0.1,0,0.1-0.1,0.1c0,0-0.1,0.1-0.1,0.1c0,0-0.1,0-0.1,0l-0.4-0.2h-1v1h1.2v1.8h-1.4
			c-0.1,0-0.1,0-0.1-0.1c0,0-0.1-0.1-0.1-0.1c0-0.1,0-0.1,0.1-0.1c0,0,0.1-0.1,0.1-0.1h1v-1H58c-0.1,0-0.2,0-0.3-0.1
			c-0.1-0.1-0.1-0.2-0.1-0.3v-1c0-0.1,0-0.2,0.1-0.3c0.1-0.1,0.2-0.1,0.3-0.1h0.9c0.1,0,0.1,0,0.2,0c0.1,0,0.1,0,0.1,0
			c0,0,0.1,0,0.1,0.1c0.1,0,0.1,0,0.1,0.1C59.6,104.4,59.6,104.4,59.6,104.5z"/>
		<path class="st39" d="M59.6,104.5c0,0.1,0,0.1-0.1,0.1c0,0-0.1,0.1-0.1,0.1c0,0-0.1,0-0.1,0l-0.4-0.2h-1v1h1.2v1.8h-1.4
			c-0.1,0-0.1,0-0.1-0.1c0,0-0.1-0.1-0.1-0.1c0-0.1,0-0.1,0.1-0.1c0,0,0.1-0.1,0.1-0.1h1v-1H58c-0.1,0-0.2,0-0.3-0.1
			c-0.1-0.1-0.1-0.2-0.1-0.3v-1c0-0.1,0-0.2,0.1-0.3c0.1-0.1,0.2-0.1,0.3-0.1h0.9c0.1,0,0.1,0,0.2,0c0.1,0,0.1,0,0.1,0
			c0,0,0.1,0,0.1,0.1c0.1,0,0.1,0,0.1,0.1C59.6,104.4,59.6,104.4,59.6,104.5z"/>
		<path class="st36" d="M59.2,113.5H58v0.6h1.2V113.5z M59.6,113.3v2.8c0,0.1,0,0.1-0.1,0.1c0,0-0.1,0.1-0.1,0.1h-0.2
			c-0.1,0-0.1,0-0.1-0.1c0,0-0.1-0.1-0.1-0.1c0-0.1,0-0.1,0.1-0.1c0,0,0.1-0.1,0.1-0.1v-1.3h-1.4c-0.1,0-0.1,0-0.1-0.1
			c0,0-0.1-0.1-0.1-0.1v-1.1c0-0.1,0-0.1,0.1-0.1c0,0,0.1-0.1,0.1-0.1h1.7c0.1,0,0.1,0,0.1,0.1C59.6,113.2,59.6,113.3,59.6,113.3z"
			/>
		<path class="st39" d="M59.2,113.5H58v0.6h1.2V113.5z M59.6,113.3v2.8c0,0.1,0,0.1-0.1,0.1c0,0-0.1,0.1-0.1,0.1h-0.2
			c-0.1,0-0.1,0-0.1-0.1c0,0-0.1-0.1-0.1-0.1c0-0.1,0-0.1,0.1-0.1c0,0,0.1-0.1,0.1-0.1v-1.3h-1.4c-0.1,0-0.1,0-0.1-0.1
			c0,0-0.1-0.1-0.1-0.1v-1.1c0-0.1,0-0.1,0.1-0.1c0,0,0.1-0.1,0.1-0.1h1.7c0.1,0,0.1,0,0.1,0.1C59.6,113.2,59.6,113.3,59.6,113.3z"
			/>
		<path class="st36" d="M59.6,124.9v0.2c0,0.1,0,0.1-0.1,0.1c0,0-0.1,0.1-0.1,0.1h-1.9V124c0-0.1,0-0.1,0.1-0.2l0.8-0.6v-1
			c0-0.1,0-0.1,0.1-0.1c0,0,0.1-0.1,0.1-0.1c0.1,0,0.1,0,0.1,0.1c0,0,0.1,0.1,0.1,0.1v1.1c0,0.1,0,0.1-0.1,0.2l-0.8,0.6v0.8h1.2
			c0,0,0-0.1,0.1-0.1c0,0,0.1,0,0.1,0c0.1,0,0.1,0,0.1,0.1C59.6,124.8,59.6,124.9,59.6,124.9z"/>
		<path class="st39" d="M59.6,124.9v0.2c0,0.1,0,0.1-0.1,0.1c0,0-0.1,0.1-0.1,0.1h-1.9V124c0-0.1,0-0.1,0.1-0.2l0.8-0.6v-1
			c0-0.1,0-0.1,0.1-0.1c0,0,0.1-0.1,0.1-0.1c0.1,0,0.1,0,0.1,0.1c0,0,0.1,0.1,0.1,0.1v1.1c0,0.1,0,0.1-0.1,0.2l-0.8,0.6v0.8h1.2
			c0,0,0-0.1,0.1-0.1c0,0,0.1,0,0.1,0c0.1,0,0.1,0,0.1,0.1C59.6,124.8,59.6,124.9,59.6,124.9z"/>
		<path class="st36" d="M58.8,132.9h-0.4v1h0.4V132.9z M59.2,131.4H58v1h1.2V131.4z M59.6,131.4v1c0,0.1,0,0.2-0.1,0.3
			c-0.1,0.1-0.2,0.1-0.3,0.1v1.2c0,0.1,0,0.1-0.1,0.1c0,0-0.1,0.1-0.1,0.1h-0.8c-0.1,0-0.1,0-0.1-0.1c0,0-0.1-0.1-0.1-0.1v-1.2
			c-0.1,0-0.2,0-0.3-0.1c-0.1-0.1-0.1-0.2-0.1-0.3v-1c0-0.1,0-0.2,0.1-0.3c0.1-0.1,0.2-0.1,0.3-0.1h1.2c0.1,0,0.2,0,0.3,0.1
			C59.6,131.2,59.6,131.3,59.6,131.4z"/>
		<path class="st39" d="M58.8,132.9h-0.4v1h0.4V132.9z M59.2,131.4H58v1h1.2V131.4z M59.6,131.4v1c0,0.1,0,0.2-0.1,0.3
			c-0.1,0.1-0.2,0.1-0.3,0.1v1.2c0,0.1,0,0.1-0.1,0.1c0,0-0.1,0.1-0.1,0.1h-0.8c-0.1,0-0.1,0-0.1-0.1c0,0-0.1-0.1-0.1-0.1v-1.2
			c-0.1,0-0.2,0-0.3-0.1c-0.1-0.1-0.1-0.2-0.1-0.3v-1c0-0.1,0-0.2,0.1-0.3c0.1-0.1,0.2-0.1,0.3-0.1h1.2c0.1,0,0.2,0,0.3,0.1
			C59.6,131.2,59.6,131.3,59.6,131.4z"/>
		<path class="st36" d="M59.3,171.2h-1.2v0.6h1.2V171.2z M59.7,171v1.1c0,0.1,0,0.1-0.1,0.1c0,0-0.1,0.1-0.1,0.1h-1.6
			c-0.1,0-0.1,0-0.1-0.1c0,0-0.1-0.1-0.1-0.1v-2.8c0-0.1,0-0.1,0.1-0.1c0,0,0.1-0.1,0.1-0.1h0.2c0.1,0,0.1,0,0.1,0.1
			c0,0,0.1,0.1,0.1,0.1c0,0.1,0,0.1-0.1,0.1c0,0-0.1,0.1-0.1,0.1v1.3h1.4c0.1,0,0.1,0,0.1,0.1C59.7,170.9,59.7,170.9,59.7,171z"/>
		<path class="st40" d="M59.3,171.2h-1.2v0.6h1.2V171.2z M59.7,171v1.1c0,0.1,0,0.1-0.1,0.1c0,0-0.1,0.1-0.1,0.1h-1.6
			c-0.1,0-0.1,0-0.1-0.1c0,0-0.1-0.1-0.1-0.1v-2.8c0-0.1,0-0.1,0.1-0.1c0,0,0.1-0.1,0.1-0.1h0.2c0.1,0,0.1,0,0.1,0.1
			c0,0,0.1,0.1,0.1,0.1c0,0.1,0,0.1-0.1,0.1c0,0-0.1,0.1-0.1,0.1v1.3h1.4c0.1,0,0.1,0,0.1,0.1C59.7,170.9,59.7,170.9,59.7,171z"/>
		<path class="st36" d="M59.3,178.4h-1.2v2.4h1.2V178.4z M59.7,178.4v2.4c0,0.1,0,0.2-0.1,0.3c-0.1,0.1-0.2,0.1-0.3,0.1h-1.2
			c-0.1,0-0.2,0-0.3-0.1c-0.1-0.1-0.1-0.2-0.1-0.3v-2.4c0-0.1,0-0.2,0.1-0.3c0.1-0.1,0.2-0.1,0.3-0.1h1.2c0.1,0,0.2,0,0.3,0.1
			C59.7,178.1,59.7,178.2,59.7,178.4z M62.7,178.2c0,0.1,0,0.1-0.1,0.1s-0.1,0.1-0.1,0.1h-0.6v2.4h0.6c0.1,0,0.1,0,0.1,0.1
			c0,0,0.1,0.1,0.1,0.1c0,0.1,0,0.1-0.1,0.1s-0.1,0.1-0.1,0.1h-1v-2.8h-0.4v0.8c0,0.1,0,0.1-0.1,0.1c0,0-0.1,0.1-0.1,0.1
			c-0.1,0-0.1,0-0.1-0.1c0,0-0.1-0.1-0.1-0.1v-1.1c0-0.1,0-0.1,0.1-0.1c0,0,0.1-0.1,0.1-0.1h1.6c0.1,0,0.1,0,0.1,0.1
			C62.7,178,62.7,178.1,62.7,178.2z"/>
		<path class="st40" d="M59.3,178.4h-1.2v2.4h1.2V178.4z M59.7,178.4v2.4c0,0.1,0,0.2-0.1,0.3c-0.1,0.1-0.2,0.1-0.3,0.1h-1.2
			c-0.1,0-0.2,0-0.3-0.1c-0.1-0.1-0.1-0.2-0.1-0.3v-2.4c0-0.1,0-0.2,0.1-0.3c0.1-0.1,0.2-0.1,0.3-0.1h1.2c0.1,0,0.2,0,0.3,0.1
			C59.7,178.1,59.7,178.2,59.7,178.4z M62.7,178.2c0,0.1,0,0.1-0.1,0.1c0,0-0.1,0.1-0.1,0.1h-0.6v2.4h0.6c0.1,0,0.1,0,0.1,0.1
			c0,0,0.1,0.1,0.1,0.1c0,0.1,0,0.1-0.1,0.1c0,0-0.1,0.1-0.1,0.1h-1v-2.8h-0.4v0.8c0,0.1,0,0.1-0.1,0.1c0,0-0.1,0.1-0.1,0.1
			c-0.1,0-0.1,0-0.1-0.1c0,0-0.1-0.1-0.1-0.1v-1.1c0-0.1,0-0.1,0.1-0.1c0,0,0.1-0.1,0.1-0.1h1.6c0.1,0,0.1,0,0.1,0.1
			C62.7,178,62.7,178.1,62.7,178.2z"/>
		<path class="st36" d="M59.7,187.1c0,0.1,0,0.1-0.1,0.1c0,0-0.1,0.1-0.1,0.1h-0.6v2.4h0.6c0.1,0,0.1,0,0.1,0.1c0,0,0.1,0.1,0.1,0.1
			c0,0.1,0,0.1-0.1,0.1c0,0-0.1,0.1-0.1,0.1h-1v-2.8h-0.4v0.8c0,0.1,0,0.1-0.1,0.1c0,0-0.1,0.1-0.1,0.1c-0.1,0-0.1,0-0.1-0.1
			s-0.1-0.1-0.1-0.1v-1.1c0-0.1,0-0.1,0.1-0.1c0,0,0.1-0.1,0.1-0.1h1.6c0.1,0,0.1,0,0.1,0.1C59.7,187,59.7,187,59.7,187.1z
			 M62.7,187.1c0,0.1,0,0.1-0.1,0.1c0,0-0.1,0.1-0.1,0.1h-0.6v2.4h0.6c0.1,0,0.1,0,0.1,0.1s0.1,0.1,0.1,0.1c0,0.1,0,0.1-0.1,0.1
			c0,0-0.1,0.1-0.1,0.1h-1v-2.8h-0.4v0.8c0,0.1,0,0.1-0.1,0.1c0,0-0.1,0.1-0.1,0.1c-0.1,0-0.1,0-0.1-0.1c0,0-0.1-0.1-0.1-0.1v-1.1
			c0-0.1,0-0.1,0.1-0.1c0,0,0.1-0.1,0.1-0.1h1.6c0.1,0,0.1,0,0.1,0.1C62.7,187,62.7,187,62.7,187.1z"/>
		<path class="st40" d="M59.7,187.1c0,0.1,0,0.1-0.1,0.1s-0.1,0.1-0.1,0.1h-0.6v2.4h0.6c0.1,0,0.1,0,0.1,0.1c0,0,0.1,0.1,0.1,0.1
			c0,0.1,0,0.1-0.1,0.1s-0.1,0.1-0.1,0.1h-1v-2.8h-0.4v0.8c0,0.1,0,0.1-0.1,0.1c0,0-0.1,0.1-0.1,0.1c-0.1,0-0.1,0-0.1-0.1
			c0,0-0.1-0.1-0.1-0.1v-1.1c0-0.1,0-0.1,0.1-0.1c0,0,0.1-0.1,0.1-0.1h1.6c0.1,0,0.1,0,0.1,0.1C59.7,187,59.7,187,59.7,187.1z
			 M62.7,187.1c0,0.1,0,0.1-0.1,0.1s-0.1,0.1-0.1,0.1h-0.6v2.4h0.6c0.1,0,0.1,0,0.1,0.1c0,0,0.1,0.1,0.1,0.1c0,0.1,0,0.1-0.1,0.1
			s-0.1,0.1-0.1,0.1h-1v-2.8h-0.4v0.8c0,0.1,0,0.1-0.1,0.1c0,0-0.1,0.1-0.1,0.1c-0.1,0-0.1,0-0.1-0.1c0,0-0.1-0.1-0.1-0.1v-1.1
			c0-0.1,0-0.1,0.1-0.1c0,0,0.1-0.1,0.1-0.1h1.6c0.1,0,0.1,0,0.1,0.1C62.7,187,62.7,187,62.7,187.1z"/>
		<path class="st36" d="M59.7,195.8v1.4c0,0.1,0,0.2-0.1,0.3c-0.1,0.1-0.2,0.1-0.3,0.1h-1.2v1h1.4c0.1,0,0.1,0,0.1,0.1
			c0,0,0.1,0.1,0.1,0.1c0,0.1,0,0.1-0.1,0.1c0,0-0.1,0.1-0.1,0.1h-1.4c-0.1,0-0.2,0-0.3-0.1c-0.1-0.1-0.1-0.2-0.1-0.3v-1
			c0-0.1,0-0.2,0.1-0.3c0.1-0.1,0.2-0.1,0.3-0.1h1.2v-1h-1.4c-0.1,0-0.1,0-0.1-0.1c0,0-0.1-0.1-0.1-0.1c0-0.1,0-0.1,0.1-0.1
			c0,0,0.1-0.1,0.1-0.1H59.7z M62.7,196c0,0.1,0,0.1-0.1,0.1c0,0-0.1,0.1-0.1,0.1h-0.6v2.4h0.6c0.1,0,0.1,0,0.1,0.1
			c0,0,0.1,0.1,0.1,0.1c0,0.1,0,0.1-0.1,0.1c0,0-0.1,0.1-0.1,0.1h-1v-2.8h-0.4v0.8c0,0.1,0,0.1-0.1,0.1c0,0-0.1,0.1-0.1,0.1
			c-0.1,0-0.1,0-0.1-0.1c0,0-0.1-0.1-0.1-0.1V196c0-0.1,0-0.1,0.1-0.1c0,0,0.1-0.1,0.1-0.1h1.6c0.1,0,0.1,0,0.1,0.1
			C62.7,195.9,62.7,196,62.7,196z"/>
		<path class="st40" d="M59.7,195.8v1.4c0,0.1,0,0.2-0.1,0.3c-0.1,0.1-0.2,0.1-0.3,0.1h-1.2v1h1.4c0.1,0,0.1,0,0.1,0.1
			s0.1,0.1,0.1,0.1c0,0.1,0,0.1-0.1,0.1s-0.1,0.1-0.1,0.1h-1.4c-0.1,0-0.2,0-0.3-0.1c-0.1-0.1-0.1-0.2-0.1-0.3v-1
			c0-0.1,0-0.2,0.1-0.3c0.1-0.1,0.2-0.1,0.3-0.1h1.2v-1h-1.4c-0.1,0-0.1,0-0.1-0.1c0,0-0.1-0.1-0.1-0.1c0-0.1,0-0.1,0.1-0.1
			c0,0,0.1-0.1,0.1-0.1H59.7z M62.7,196c0,0.1,0,0.1-0.1,0.1c0,0-0.1,0.1-0.1,0.1h-0.6v2.4h0.6c0.1,0,0.1,0,0.1,0.1s0.1,0.1,0.1,0.1
			c0,0.1,0,0.1-0.1,0.1s-0.1,0.1-0.1,0.1h-1v-2.8h-0.4v0.8c0,0.1,0,0.1-0.1,0.1c0,0-0.1,0.1-0.1,0.1c-0.1,0-0.1,0-0.1-0.1
			c0,0-0.1-0.1-0.1-0.1V196c0-0.1,0-0.1,0.1-0.1c0,0,0.1-0.1,0.1-0.1h1.6c0.1,0,0.1,0,0.1,0.1S62.7,196,62.7,196z"/>
		<path class="st36" d="M59.7,205c0,0.1,0,0.1-0.1,0.1c0,0-0.1,0.1-0.1,0.1h-1.4v0.8c0,0.1,0,0.1,0.1,0.1c0,0,0.1,0.1,0.1,0.1h0.8
			c0.1,0,0.1,0,0.1,0.1c0,0,0.1,0.1,0.1,0.1c0,0.1,0,0.1-0.1,0.1c0,0-0.1,0.1-0.1,0.1h-0.8c-0.1,0-0.1,0-0.1,0.1
			c0,0-0.1,0.1-0.1,0.1v0.8h1.4c0.1,0,0.1,0,0.1,0.1c0,0,0.1,0.1,0.1,0.1c0,0.1,0,0.1-0.1,0.1c0,0-0.1,0.1-0.1,0.1h-1.4
			c-0.1,0-0.2,0-0.3-0.1c-0.1-0.1-0.1-0.2-0.1-0.3v-0.8c0-0.2,0.1-0.3,0.2-0.4c-0.1-0.1-0.2-0.3-0.2-0.4v-0.8c0-0.1,0-0.2,0.1-0.3
			c0.1-0.1,0.2-0.1,0.3-0.1h1.4c0.1,0,0.1,0,0.1,0.1C59.7,204.8,59.7,204.9,59.7,205z M62.7,205c0,0.1,0,0.1-0.1,0.1
			c0,0-0.1,0.1-0.1,0.1h-0.6v2.4h0.6c0.1,0,0.1,0,0.1,0.1c0,0,0.1,0.1,0.1,0.1c0,0.1,0,0.1-0.1,0.1c0,0-0.1,0.1-0.1,0.1h-1v-2.8
			h-0.4v0.8c0,0.1,0,0.1-0.1,0.1c0,0-0.1,0.1-0.1,0.1c-0.1,0-0.1,0-0.1-0.1c0,0-0.1-0.1-0.1-0.1V205c0-0.1,0-0.1,0.1-0.1
			c0,0,0.1-0.1,0.1-0.1h1.6c0.1,0,0.1,0,0.1,0.1S62.7,204.9,62.7,205z"/>
		<path class="st40" d="M59.7,205c0,0.1,0,0.1-0.1,0.1s-0.1,0.1-0.1,0.1h-1.4v0.8c0,0.1,0,0.1,0.1,0.1c0,0,0.1,0.1,0.1,0.1h0.8
			c0.1,0,0.1,0,0.1,0.1c0,0,0.1,0.1,0.1,0.1c0,0.1,0,0.1-0.1,0.1s-0.1,0.1-0.1,0.1h-0.8c-0.1,0-0.1,0-0.1,0.1c0,0-0.1,0.1-0.1,0.1
			v0.8h1.4c0.1,0,0.1,0,0.1,0.1c0,0,0.1,0.1,0.1,0.1c0,0.1,0,0.1-0.1,0.1s-0.1,0.1-0.1,0.1h-1.4c-0.1,0-0.2,0-0.3-0.1
			c-0.1-0.1-0.1-0.2-0.1-0.3v-0.8c0-0.2,0.1-0.3,0.2-0.4c-0.1-0.1-0.2-0.3-0.2-0.4v-0.8c0-0.1,0-0.2,0.1-0.3s0.2-0.1,0.3-0.1h1.4
			c0.1,0,0.1,0,0.1,0.1C59.7,204.8,59.7,204.9,59.7,205z M62.7,205c0,0.1,0,0.1-0.1,0.1s-0.1,0.1-0.1,0.1h-0.6v2.4h0.6
			c0.1,0,0.1,0,0.1,0.1c0,0,0.1,0.1,0.1,0.1c0,0.1,0,0.1-0.1,0.1s-0.1,0.1-0.1,0.1h-1v-2.8h-0.4v0.8c0,0.1,0,0.1-0.1,0.1
			c0,0-0.1,0.1-0.1,0.1c-0.1,0-0.1,0-0.1-0.1c0,0-0.1-0.1-0.1-0.1V205c0-0.1,0-0.1,0.1-0.1c0,0,0.1-0.1,0.1-0.1h1.6
			c0.1,0,0.1,0,0.1,0.1C62.7,204.8,62.7,204.9,62.7,205z"/>
		<path class="st36" d="M59.6,214.7v2c0,0.1,0,0.1-0.1,0.1c0,0-0.1,0.1-0.1,0.1c-0.1,0-0.1,0-0.1-0.1c0,0-0.1-0.1-0.1-0.1v-1.6h-0.8
			v1.2c0,0.1,0,0.1-0.1,0.1c0,0-0.1,0.1-0.1,0.1c-0.1,0-0.1,0-0.1-0.1c0,0-0.1-0.1-0.1-0.1v-1.2c-0.1,0-0.1,0-0.1-0.1
			c0,0-0.1-0.1-0.1-0.1c0-0.1,0-0.1,0.1-0.1s0.1-0.1,0.1-0.1v-0.8c0-0.1,0-0.1,0.1-0.1c0,0,0.1-0.1,0.1-0.1c0.1,0,0.1,0,0.1,0.1
			c0,0,0.1,0.1,0.1,0.1v0.8H59.6z M62.7,213.9c0,0.1,0,0.1-0.1,0.1c0,0-0.1,0.1-0.1,0.1h-0.6v2.4h0.6c0.1,0,0.1,0,0.1,0.1
			c0,0,0.1,0.1,0.1,0.1c0,0.1,0,0.1-0.1,0.1c0,0-0.1,0.1-0.1,0.1h-1v-2.8h-0.4v0.8c0,0.1,0,0.1-0.1,0.1c0,0-0.1,0.1-0.1,0.1
			c-0.1,0-0.1,0-0.1-0.1c0,0-0.1-0.1-0.1-0.1v-1.1c0-0.1,0-0.1,0.1-0.1c0,0,0.1-0.1,0.1-0.1h1.6c0.1,0,0.1,0,0.1,0.1
			C62.7,213.8,62.7,213.8,62.7,213.9z"/>
		<path class="st40" d="M59.6,214.7v2c0,0.1,0,0.1-0.1,0.1c0,0-0.1,0.1-0.1,0.1c-0.1,0-0.1,0-0.1-0.1c0,0-0.1-0.1-0.1-0.1v-1.6h-0.8
			v1.2c0,0.1,0,0.1-0.1,0.1c0,0-0.1,0.1-0.1,0.1c-0.1,0-0.1,0-0.1-0.1c0,0-0.1-0.1-0.1-0.1v-1.2c-0.1,0-0.1,0-0.1-0.1
			c0,0-0.1-0.1-0.1-0.1c0-0.1,0-0.1,0.1-0.1c0,0,0.1-0.1,0.1-0.1v-0.8c0-0.1,0-0.1,0.1-0.1c0,0,0.1-0.1,0.1-0.1c0.1,0,0.1,0,0.1,0.1
			c0,0,0.1,0.1,0.1,0.1v0.8H59.6z M62.7,213.9c0,0.1,0,0.1-0.1,0.1c0,0-0.1,0.1-0.1,0.1h-0.6v2.4h0.6c0.1,0,0.1,0,0.1,0.1
			c0,0,0.1,0.1,0.1,0.1c0,0.1,0,0.1-0.1,0.1c0,0-0.1,0.1-0.1,0.1h-1v-2.8h-0.4v0.8c0,0.1,0,0.1-0.1,0.1c0,0-0.1,0.1-0.1,0.1
			c-0.1,0-0.1,0-0.1-0.1c0,0-0.1-0.1-0.1-0.1v-1.1c0-0.1,0-0.1,0.1-0.1c0,0,0.1-0.1,0.1-0.1h1.6c0.1,0,0.1,0,0.1,0.1
			C62.7,213.8,62.7,213.8,62.7,213.9z"/>
		<path class="st36" d="M59.7,223c0,0.1,0,0.1-0.1,0.1c0,0-0.1,0.1-0.1,0.1c0,0-0.1,0-0.1,0l-0.4-0.2h-1v1h1.2v1.8h-1.4
			c-0.1,0-0.1,0-0.1-0.1c0,0-0.1-0.1-0.1-0.1c0-0.1,0-0.1,0.1-0.1c0,0,0.1-0.1,0.1-0.1h1v-1h-0.8c-0.1,0-0.2,0-0.3-0.1
			c-0.1-0.1-0.1-0.2-0.1-0.3v-1c0-0.1,0-0.2,0.1-0.3c0.1-0.1,0.2-0.1,0.3-0.1H59c0.1,0,0.1,0,0.2,0c0.1,0,0.1,0,0.1,0
			c0,0,0.1,0,0.1,0.1c0.1,0,0.1,0,0.1,0.1C59.7,222.8,59.7,222.9,59.7,223z M62.7,222.8c0,0.1,0,0.1-0.1,0.1c0,0-0.1,0.1-0.1,0.1
			h-0.6v2.4h0.6c0.1,0,0.1,0,0.1,0.1c0,0,0.1,0.1,0.1,0.1c0,0.1,0,0.1-0.1,0.1c0,0-0.1,0.1-0.1,0.1h-1V223h-0.4v0.8
			c0,0.1,0,0.1-0.1,0.1c0,0-0.1,0.1-0.1,0.1c-0.1,0-0.1,0-0.1-0.1c0,0-0.1-0.1-0.1-0.1v-1.1c0-0.1,0-0.1,0.1-0.1
			c0,0,0.1-0.1,0.1-0.1h1.6c0.1,0,0.1,0,0.1,0.1C62.7,222.7,62.7,222.8,62.7,222.8z"/>
		<path class="st40" d="M59.7,223c0,0.1,0,0.1-0.1,0.1c0,0-0.1,0.1-0.1,0.1c0,0-0.1,0-0.1,0l-0.4-0.2h-1v1h1.2v1.8h-1.4
			c-0.1,0-0.1,0-0.1-0.1c0,0-0.1-0.1-0.1-0.1c0-0.1,0-0.1,0.1-0.1c0,0,0.1-0.1,0.1-0.1h1v-1h-0.8c-0.1,0-0.2,0-0.3-0.1
			s-0.1-0.2-0.1-0.3v-1c0-0.1,0-0.2,0.1-0.3c0.1-0.1,0.2-0.1,0.3-0.1H59c0.1,0,0.1,0,0.2,0c0.1,0,0.1,0,0.1,0c0,0,0.1,0,0.1,0.1
			c0.1,0,0.1,0,0.1,0.1C59.7,222.8,59.7,222.9,59.7,223z M62.7,222.8c0,0.1,0,0.1-0.1,0.1c0,0-0.1,0.1-0.1,0.1h-0.6v2.4h0.6
			c0.1,0,0.1,0,0.1,0.1c0,0,0.1,0.1,0.1,0.1c0,0.1,0,0.1-0.1,0.1c0,0-0.1,0.1-0.1,0.1h-1V223h-0.4v0.8c0,0.1,0,0.1-0.1,0.1
			c0,0-0.1,0.1-0.1,0.1c-0.1,0-0.1,0-0.1-0.1c0,0-0.1-0.1-0.1-0.1v-1.1c0-0.1,0-0.1,0.1-0.1c0,0,0.1-0.1,0.1-0.1h1.6
			c0.1,0,0.1,0,0.1,0.1C62.7,222.7,62.7,222.8,62.7,222.8z"/>
		<path class="st36" d="M59.3,232h-1.2v0.6h1.2V232z M59.7,231.8v2.8c0,0.1,0,0.1-0.1,0.1c0,0-0.1,0.1-0.1,0.1h-0.2
			c-0.1,0-0.1,0-0.1-0.1c0,0-0.1-0.1-0.1-0.1c0-0.1,0-0.1,0.1-0.1c0,0,0.1-0.1,0.1-0.1V233h-1.4c-0.1,0-0.1,0-0.1-0.1
			s-0.1-0.1-0.1-0.1v-1.1c0-0.1,0-0.1,0.1-0.1c0,0,0.1-0.1,0.1-0.1h1.6c0.1,0,0.1,0,0.1,0.1C59.7,231.7,59.7,231.7,59.7,231.8z
			 M62.7,231.8c0,0.1,0,0.1-0.1,0.1c0,0-0.1,0.1-0.1,0.1h-0.6v2.4h0.6c0.1,0,0.1,0,0.1,0.1c0,0,0.1,0.1,0.1,0.1c0,0.1,0,0.1-0.1,0.1
			c0,0-0.1,0.1-0.1,0.1h-1V232h-0.4v0.8c0,0.1,0,0.1-0.1,0.1c0,0-0.1,0.1-0.1,0.1c-0.1,0-0.1,0-0.1-0.1c0,0-0.1-0.1-0.1-0.1v-1.1
			c0-0.1,0-0.1,0.1-0.1c0,0,0.1-0.1,0.1-0.1h1.6c0.1,0,0.1,0,0.1,0.1C62.7,231.7,62.7,231.7,62.7,231.8z"/>
		<path class="st40" d="M59.3,232h-1.2v0.6h1.2V232z M59.7,231.8v2.8c0,0.1,0,0.1-0.1,0.1c0,0-0.1,0.1-0.1,0.1h-0.2
			c-0.1,0-0.1,0-0.1-0.1c0,0-0.1-0.1-0.1-0.1c0-0.1,0-0.1,0.1-0.1c0,0,0.1-0.1,0.1-0.1V233h-1.4c-0.1,0-0.1,0-0.1-0.1
			c0,0-0.1-0.1-0.1-0.1v-1.1c0-0.1,0-0.1,0.1-0.1c0,0,0.1-0.1,0.1-0.1h1.6c0.1,0,0.1,0,0.1,0.1S59.7,231.7,59.7,231.8z M62.7,231.8
			c0,0.1,0,0.1-0.1,0.1c0,0-0.1,0.1-0.1,0.1h-0.6v2.4h0.6c0.1,0,0.1,0,0.1,0.1s0.1,0.1,0.1,0.1c0,0.1,0,0.1-0.1,0.1
			c0,0-0.1,0.1-0.1,0.1h-1V232h-0.4v0.8c0,0.1,0,0.1-0.1,0.1c0,0-0.1,0.1-0.1,0.1c-0.1,0-0.1,0-0.1-0.1c0,0-0.1-0.1-0.1-0.1v-1.1
			c0-0.1,0-0.1,0.1-0.1c0,0,0.1-0.1,0.1-0.1h1.6c0.1,0,0.1,0,0.1,0.1S62.7,231.7,62.7,231.8z"/>
		<path class="st36" d="M34.4,167.3v0.1c0,0.1,0,0.1,0.1,0.2l0.8,0.4c0.1,0,0.2,0.1,0.2,0.1c0.1,0,0.2,0,0.2-0.1l0.8-0.4
			c0.1,0,0.1-0.1,0.1-0.2v-0.1H34.4z M34.2,166.5c0.1,0,0.1,0,0.1,0.1c0,0,0.1,0.1,0.1,0.1v0.2h2.4v-0.2c0-0.1,0-0.1,0.1-0.1
			c0,0,0.1-0.1,0.1-0.1c0.1,0,0.1,0,0.1,0.1c0,0,0.1,0.1,0.1,0.1v0.8c0,0.1,0,0.2-0.1,0.3c-0.1,0.1-0.1,0.2-0.2,0.2l-0.8,0.4
			c-0.1,0.1-0.3,0.1-0.4,0.1s-0.3,0-0.4-0.1l-0.8-0.4c-0.1,0-0.2-0.1-0.2-0.2c-0.1-0.1-0.1-0.2-0.1-0.3v-0.8c0-0.1,0-0.1,0.1-0.1
			C34.1,166.5,34.2,166.5,34.2,166.5z M34.2,163.5h3v0.6l-2.5,1.1h2.3c0.1,0,0.1,0,0.1,0.1c0,0,0.1,0.1,0.1,0.1c0,0.1,0,0.1-0.1,0.1
			c0,0-0.1,0.1-0.1,0.1h-3V165l2.5-1.1h-2.3c-0.1,0-0.1,0-0.1-0.1c0,0-0.1-0.1-0.1-0.1c0-0.1,0-0.1,0.1-0.1
			C34.1,163.5,34.2,163.5,34.2,163.5z M34.7,160.5h1.1c0.2,0,0.4,0.1,0.5,0.2l0.7,0.6c0.2,0.1,0.2,0.3,0.2,0.5v0.6
			c0,0.1,0,0.1-0.1,0.1c0,0-0.1,0.1-0.1,0.1c-0.1,0-0.1,0-0.1-0.1c0,0-0.1-0.1-0.1-0.1v-0.6c0-0.1,0-0.1-0.1-0.2L36,161
			c-0.1-0.1-0.2-0.1-0.3-0.1h-1.1c-0.1,0-0.1,0-0.1,0.1c0,0-0.1,0.1-0.1,0.1v0.8c0,0.1,0,0.1,0.1,0.1c0,0,0.1,0.1,0.1,0.1h0.4v-0.4
			c0-0.1,0-0.1,0.1-0.1c0,0,0.1-0.1,0.1-0.1s0.1,0,0.1,0.1c0,0,0.1,0.1,0.1,0.1v0.8h-0.8c-0.2,0-0.3-0.1-0.4-0.2
			c-0.1-0.1-0.2-0.3-0.2-0.4v-0.8c0-0.2,0.1-0.3,0.2-0.4C34.3,160.6,34.5,160.5,34.7,160.5z"/>
		<path class="st41" d="M61.5,166.8v0.1c0,0.1,0,0.1,0.1,0.1l0.7,0.4c0.1,0,0.1,0,0.2,0c0.1,0,0.1,0,0.2,0l0.7-0.4
			c0.1,0,0.1-0.1,0.1-0.1v-0.1H61.5z M61.3,166.1c0,0,0.1,0,0.1,0c0,0,0.1,0.1,0.1,0.1v0.2h2v-0.2c0,0,0-0.1,0.1-0.1
			c0,0,0.1,0,0.1,0c0,0,0.1,0,0.1,0c0,0,0.1,0.1,0.1,0.1v0.6c0,0.1,0,0.2-0.1,0.3c-0.1,0.1-0.1,0.1-0.2,0.2l-0.7,0.3
			c-0.1,0.1-0.2,0.1-0.4,0.1c-0.1,0-0.2,0-0.4-0.1l-0.7-0.3c-0.1,0-0.1-0.1-0.2-0.2c-0.1-0.1-0.1-0.2-0.1-0.3v-0.6
			c0,0,0-0.1,0.1-0.1C61.2,166.1,61.3,166.1,61.3,166.1z M61.3,163.6h2.5v0.5l-2,0.9h1.9c0,0,0.1,0,0.1,0c0,0,0.1,0.1,0.1,0.1
			s0,0.1-0.1,0.1c0,0-0.1,0.1-0.1,0.1h-2.5v-0.5l2-0.9h-1.9c0,0-0.1,0-0.1-0.1c0,0-0.1-0.1-0.1-0.1s0-0.1,0.1-0.1
			C61.2,163.6,61.3,163.6,61.3,163.6z M61.6,161.2h0.9c0.2,0,0.3,0,0.4,0.1l0.6,0.5c0.1,0.1,0.2,0.2,0.2,0.4v0.5c0,0,0,0.1-0.1,0.1
			c0,0-0.1,0.1-0.1,0.1c0,0-0.1,0-0.1-0.1c0,0-0.1-0.1-0.1-0.1v-0.5c0-0.1,0-0.1-0.1-0.1l-0.6-0.5c-0.1,0-0.1-0.1-0.2-0.1h-0.9
			c0,0-0.1,0-0.1,0.1c0,0-0.1,0.1-0.1,0.1v0.7c0,0,0,0.1,0.1,0.1c0,0,0.1,0.1,0.1,0.1H62v-0.3c0,0,0-0.1,0-0.1c0,0,0.1,0,0.1,0
			c0,0,0.1,0,0.1,0c0,0,0.1,0.1,0.1,0.1v0.7h-0.7c-0.1,0-0.3-0.1-0.4-0.2c-0.1-0.1-0.2-0.2-0.2-0.4v-0.7c0-0.1,0.1-0.3,0.2-0.4
			C61.4,161.2,61.5,161.2,61.6,161.2z"/>
		<path class="st36" d="M62.6,132.6h2.5v0.5l-2,0.9h1.9c0,0,0.1,0,0.1,0c0,0,0.1,0.1,0.1,0.1c0,0,0,0.1-0.1,0.1c0,0-0.1,0.1-0.1,0.1
			h-2.5v-0.5l2-0.9h-1.9c0,0-0.1,0-0.1-0.1c0,0-0.1-0.1-0.1-0.1c0,0,0-0.1,0.1-0.1C62.5,132.6,62.6,132.6,62.6,132.6z M62.6,130.1
			c0,0,0.1,0,0.1,0c0,0,0.1,0.1,0.1,0.1v0.5h2v-0.5c0,0,0-0.1,0.1-0.1s0.1,0,0.1,0c0,0,0.1,0,0.1,0c0,0,0.1,0.1,0.1,0.1v1.3
			c0,0,0,0.1-0.1,0.1c0,0-0.1,0.1-0.1,0.1c0,0-0.1,0-0.1-0.1s-0.1-0.1-0.1-0.1v-0.5h-2v0.5c0,0,0,0.1-0.1,0.1c0,0-0.1,0.1-0.1,0.1
			c0,0-0.1,0-0.1-0.1c0,0-0.1-0.1-0.1-0.1v-1.3c0,0,0-0.1,0.1-0.1C62.5,130.1,62.6,130.1,62.6,130.1z M64.2,125.6v0.8
			c0,0,0,0.1,0.1,0.1c0,0,0.1,0.1,0.1,0.1h0.2c0,0,0.1,0,0.1-0.1c0,0,0.1-0.1,0.1-0.1v-0.8H64.2z M62.6,125.2h2.5v1.2
			c0,0.1-0.1,0.3-0.2,0.4s-0.2,0.2-0.4,0.2h-0.2c-0.1,0-0.3-0.1-0.4-0.2c-0.1-0.1-0.2-0.2-0.2-0.4v-0.2l-1.2,0.7c0,0-0.1,0-0.1,0
			c0,0-0.1,0-0.1-0.1c0,0-0.1-0.1-0.1-0.1c0-0.1,0-0.1,0.1-0.1l1.4-0.8v-0.2h-1.3c0,0-0.1,0-0.1-0.1c0,0-0.1-0.1-0.1-0.1
			c0,0,0-0.1,0.1-0.1C62.5,125.2,62.6,125.2,62.6,125.2z M62.5,122.8h2.7v1.5c0,0,0,0.1-0.1,0.1c0,0-0.1,0.1-0.1,0.1
			c0,0-0.1,0-0.1-0.1c0,0-0.1-0.1-0.1-0.1v-1.2h-0.8v0.5c0,0,0,0.1-0.1,0.1c0,0-0.1,0.1-0.1,0.1c0,0-0.1,0-0.1-0.1c0,0,0-0.1,0-0.1
			v-0.5h-0.8v1.2c0,0,0,0.1-0.1,0.1c0,0-0.1,0.1-0.1,0.1c0,0-0.1,0-0.1-0.1c0,0-0.1-0.1-0.1-0.1V122.8z M63,120.3h0.9
			c0.2,0,0.3,0,0.4,0.1l0.6,0.5c0.1,0.1,0.2,0.2,0.2,0.4v0.5c0,0,0,0.1-0.1,0.1c0,0-0.1,0.1-0.1,0.1c0,0-0.1,0-0.1-0.1
			c0,0-0.1-0.1-0.1-0.1v-0.5c0-0.1,0-0.1-0.1-0.1l-0.6-0.5c-0.1,0-0.1-0.1-0.2-0.1H63c0,0-0.1,0-0.1,0.1c0,0-0.1,0.1-0.1,0.1v0.7
			c0,0,0,0.1,0.1,0.1c0,0,0.1,0.1,0.1,0.1h0.4v-0.3c0,0,0-0.1,0-0.1c0,0,0.1,0,0.1,0c0,0,0.1,0,0.1,0c0,0,0.1,0.1,0.1,0.1v0.7H63
			c-0.1,0-0.3-0.1-0.4-0.2c-0.1-0.1-0.2-0.2-0.2-0.4v-0.7c0-0.1,0.1-0.3,0.2-0.4C62.7,120.4,62.8,120.3,63,120.3z M63,117.9h0.9
			c0.2,0,0.3,0,0.4,0.1l0.6,0.5c0.1,0.1,0.2,0.2,0.2,0.4v0.5c0,0,0,0.1-0.1,0.1c0,0-0.1,0.1-0.1,0.1c0,0-0.1,0-0.1-0.1
			c0,0-0.1-0.1-0.1-0.1v-0.5c0-0.1,0-0.1-0.1-0.1l-0.6-0.5c-0.1,0-0.1-0.1-0.2-0.1H63c0,0-0.1,0-0.1,0.1c0,0-0.1,0.1-0.1,0.1v0.7
			c0,0,0,0.1,0.1,0.1c0,0,0.1,0.1,0.1,0.1h0.4v-0.3c0,0,0-0.1,0-0.1c0,0,0.1,0,0.1,0c0,0,0.1,0,0.1,0c0,0,0.1,0.1,0.1,0.1v0.7H63
			c-0.1,0-0.3-0.1-0.4-0.2c-0.1-0.1-0.2-0.2-0.2-0.4v-0.7c0-0.1,0.1-0.3,0.2-0.4C62.7,117.9,62.8,117.9,63,117.9z M62.6,115.4
			c0,0,0.1,0,0.1,0c0,0,0.1,0.1,0.1,0.1v0.5h2v-0.5c0,0,0-0.1,0.1-0.1s0.1,0,0.1,0c0,0,0.1,0,0.1,0c0,0,0.1,0.1,0.1,0.1v1.3
			c0,0,0,0.1-0.1,0.1c0,0-0.1,0.1-0.1,0.1c0,0-0.1,0-0.1-0.1c0,0-0.1-0.1-0.1-0.1v-0.5h-2v0.5c0,0,0,0.1-0.1,0.1
			c0,0-0.1,0.1-0.1,0.1c0,0-0.1,0-0.1-0.1c0,0-0.1-0.1-0.1-0.1v-1.3c0,0,0-0.1,0.1-0.1C62.5,115.5,62.6,115.4,62.6,115.4z
			 M64.2,113.3v0.8c0,0,0,0.1,0.1,0.1c0,0,0.1,0.1,0.1,0.1h0.2c0,0,0.1,0,0.1-0.1c0,0,0.1-0.1,0.1-0.1v-0.8H64.2z M62.6,113h2.5v1.2
			c0,0.1-0.1,0.3-0.2,0.4s-0.2,0.2-0.4,0.2h-0.2c-0.1,0-0.3-0.1-0.4-0.2c-0.1-0.1-0.2-0.2-0.2-0.4V114l-1.2,0.7c0,0-0.1,0-0.1,0
			c0,0-0.1,0-0.1-0.1c0,0-0.1-0.1-0.1-0.1c0-0.1,0-0.1,0.1-0.1l1.4-0.8v-0.2h-1.3c0,0-0.1,0-0.1-0.1c0,0-0.1-0.1-0.1-0.1
			c0,0,0-0.1,0.1-0.1C62.5,113,62.6,113,62.6,113z M64.6,110.5h0.5v1.7h-0.5c0,0-0.1,0-0.1-0.1c0,0-0.1-0.1-0.1-0.1
			c0,0,0-0.1,0.1-0.1c0,0,0.1,0,0.1,0h0.1v-0.3h-2.1c0,0-0.1,0-0.1-0.1c0,0-0.1-0.1-0.1-0.1c0,0,0-0.1,0.1-0.1c0,0,0.1-0.1,0.1-0.1
			h2.1v-0.3h-0.1c0,0-0.1,0-0.1-0.1c0,0-0.1-0.1-0.1-0.1c0,0,0-0.1,0.1-0.1C64.6,110.6,64.6,110.5,64.6,110.5z"/>
		<path class="st41" d="M62.6,132.6h2.5v0.5l-2,0.9h1.9c0,0,0.1,0,0.1,0c0,0,0.1,0.1,0.1,0.1s0,0.1-0.1,0.1c0,0-0.1,0.1-0.1,0.1
			h-2.5v-0.5l2-0.9h-1.9c0,0-0.1,0-0.1-0.1c0,0-0.1-0.1-0.1-0.1s0-0.1,0.1-0.1C62.5,132.6,62.6,132.6,62.6,132.6z M62.6,130.1
			c0,0,0.1,0,0.1,0c0,0,0.1,0.1,0.1,0.1v0.5h2v-0.5c0,0,0-0.1,0.1-0.1c0,0,0.1,0,0.1,0c0,0,0.1,0,0.1,0c0,0,0.1,0.1,0.1,0.1v1.3
			c0,0,0,0.1-0.1,0.1c0,0-0.1,0.1-0.1,0.1c0,0-0.1,0-0.1-0.1c0,0-0.1-0.1-0.1-0.1v-0.5h-2v0.5c0,0,0,0.1-0.1,0.1
			c0,0-0.1,0.1-0.1,0.1c0,0-0.1,0-0.1-0.1c0,0-0.1-0.1-0.1-0.1v-1.3c0,0,0-0.1,0.1-0.1C62.5,130.1,62.6,130.1,62.6,130.1z
			 M64.2,125.6v0.8c0,0,0,0.1,0.1,0.1c0,0,0.1,0.1,0.1,0.1h0.2c0,0,0.1,0,0.1-0.1c0,0,0.1-0.1,0.1-0.1v-0.8H64.2z M62.6,125.2h2.5
			v1.2c0,0.1-0.1,0.3-0.2,0.4c-0.1,0.1-0.2,0.2-0.4,0.2h-0.2c-0.1,0-0.3-0.1-0.4-0.2c-0.1-0.1-0.2-0.2-0.2-0.4v-0.2l-1.2,0.7
			c0,0-0.1,0-0.1,0c0,0-0.1,0-0.1-0.1c0,0-0.1-0.1-0.1-0.1c0-0.1,0-0.1,0.1-0.1l1.4-0.8v-0.2h-1.3c0,0-0.1,0-0.1-0.1
			c0,0-0.1-0.1-0.1-0.1c0,0,0-0.1,0.1-0.1C62.5,125.2,62.6,125.2,62.6,125.2z M62.5,122.8h2.7v1.5c0,0,0,0.1-0.1,0.1
			c0,0-0.1,0.1-0.1,0.1c0,0-0.1,0-0.1-0.1c0,0-0.1-0.1-0.1-0.1v-1.2h-0.8v0.5c0,0,0,0.1-0.1,0.1c0,0-0.1,0.1-0.1,0.1
			c0,0-0.1,0-0.1-0.1c0,0,0-0.1,0-0.1v-0.5h-0.8v1.2c0,0,0,0.1-0.1,0.1c0,0-0.1,0.1-0.1,0.1c0,0-0.1,0-0.1-0.1c0,0-0.1-0.1-0.1-0.1
			V122.8z M63,120.3h0.9c0.2,0,0.3,0,0.4,0.1l0.6,0.5c0.1,0.1,0.2,0.2,0.2,0.4v0.5c0,0,0,0.1-0.1,0.1c0,0-0.1,0.1-0.1,0.1
			c0,0-0.1,0-0.1-0.1c0,0-0.1-0.1-0.1-0.1v-0.5c0-0.1,0-0.1-0.1-0.1l-0.6-0.5c-0.1,0-0.1-0.1-0.2-0.1H63c0,0-0.1,0-0.1,0.1
			c0,0-0.1,0.1-0.1,0.1v0.7c0,0,0,0.1,0.1,0.1c0,0,0.1,0.1,0.1,0.1h0.4v-0.3c0,0,0-0.1,0-0.1c0,0,0.1,0,0.1,0c0,0,0.1,0,0.1,0
			c0,0,0.1,0.1,0.1,0.1v0.7H63c-0.1,0-0.3-0.1-0.4-0.2c-0.1-0.1-0.2-0.2-0.2-0.4v-0.7c0-0.1,0.1-0.3,0.2-0.4
			C62.7,120.4,62.8,120.3,63,120.3z M63,117.9h0.9c0.2,0,0.3,0,0.4,0.1l0.6,0.5c0.1,0.1,0.2,0.2,0.2,0.4v0.5c0,0,0,0.1-0.1,0.1
			c0,0-0.1,0.1-0.1,0.1c0,0-0.1,0-0.1-0.1c0,0-0.1-0.1-0.1-0.1v-0.5c0-0.1,0-0.1-0.1-0.1l-0.6-0.5c-0.1,0-0.1-0.1-0.2-0.1H63
			c0,0-0.1,0-0.1,0.1c0,0-0.1,0.1-0.1,0.1v0.7c0,0,0,0.1,0.1,0.1c0,0,0.1,0.1,0.1,0.1h0.4v-0.3c0,0,0-0.1,0-0.1c0,0,0.1,0,0.1,0
			c0,0,0.1,0,0.1,0c0,0,0.1,0.1,0.1,0.1v0.7H63c-0.1,0-0.3-0.1-0.4-0.2c-0.1-0.1-0.2-0.2-0.2-0.4v-0.7c0-0.1,0.1-0.3,0.2-0.4
			S62.8,117.9,63,117.9z M62.6,115.4c0,0,0.1,0,0.1,0c0,0,0.1,0.1,0.1,0.1v0.5h2v-0.5c0,0,0-0.1,0.1-0.1c0,0,0.1,0,0.1,0
			c0,0,0.1,0,0.1,0c0,0,0.1,0.1,0.1,0.1v1.3c0,0,0,0.1-0.1,0.1c0,0-0.1,0.1-0.1,0.1c0,0-0.1,0-0.1-0.1c0,0-0.1-0.1-0.1-0.1v-0.5h-2
			v0.5c0,0,0,0.1-0.1,0.1c0,0-0.1,0.1-0.1,0.1c0,0-0.1,0-0.1-0.1c0,0-0.1-0.1-0.1-0.1v-1.3c0,0,0-0.1,0.1-0.1
			C62.5,115.5,62.6,115.4,62.6,115.4z M64.2,113.3v0.8c0,0,0,0.1,0.1,0.1c0,0,0.1,0.1,0.1,0.1h0.2c0,0,0.1,0,0.1-0.1
			c0,0,0.1-0.1,0.1-0.1v-0.8H64.2z M62.6,113h2.5v1.2c0,0.1-0.1,0.3-0.2,0.4c-0.1,0.1-0.2,0.2-0.4,0.2h-0.2c-0.1,0-0.3-0.1-0.4-0.2
			c-0.1-0.1-0.2-0.2-0.2-0.4V114l-1.2,0.7c0,0-0.1,0-0.1,0c0,0-0.1,0-0.1-0.1c0,0-0.1-0.1-0.1-0.1c0-0.1,0-0.1,0.1-0.1l1.4-0.8v-0.2
			h-1.3c0,0-0.1,0-0.1-0.1c0,0-0.1-0.1-0.1-0.1s0-0.1,0.1-0.1C62.5,113,62.6,113,62.6,113z M64.6,110.5h0.5v1.7h-0.5
			c0,0-0.1,0-0.1-0.1c0,0-0.1-0.1-0.1-0.1s0-0.1,0.1-0.1c0,0,0.1,0,0.1,0h0.1v-0.3h-2.1c0,0-0.1,0-0.1-0.1c0,0-0.1-0.1-0.1-0.1
			c0,0,0-0.1,0.1-0.1c0,0,0.1-0.1,0.1-0.1h2.1v-0.3h-0.1c0,0-0.1,0-0.1-0.1c0,0-0.1-0.1-0.1-0.1c0,0,0-0.1,0.1-0.1
			C64.6,110.6,64.6,110.5,64.6,110.5z"/>
		<line class="st42" x1="55" y1="236" x2="57.2" y2="233.8"/>
		<line class="st42" x1="57.2" y1="229.3" x2="55" y2="227.1"/>
		<line class="st42" x1="55" y1="227.1" x2="57.2" y2="224.8"/>
		<line class="st42" x1="57.2" y1="220.4" x2="55" y2="218.1"/>
		<line class="st42" x1="55" y1="218.1" x2="57.2" y2="215.9"/>
		<line class="st42" x1="57.2" y1="211.4" x2="55" y2="209.2"/>
		<line class="st42" x1="55" y1="209.2" x2="57.2" y2="207"/>
		<line class="st42" x1="57.2" y1="202.5" x2="55" y2="200.3"/>
		<line class="st42" x1="55" y1="200.3" x2="57.2" y2="198"/>
		<line class="st42" x1="57.2" y1="193.6" x2="55" y2="191.3"/>
		<line class="st42" x1="55" y1="191.3" x2="57.2" y2="189.1"/>
		<line class="st42" x1="57.2" y1="184.6" x2="55" y2="182.4"/>
		<line class="st42" x1="55" y1="236" x2="41.6" y2="236"/>
		<line class="st42" x1="41.6" y1="236" x2="39.3" y2="233.8"/>
		<line class="st42" x1="39.3" y1="233.8" x2="39.3" y2="229.3"/>
		<line class="st42" x1="39.3" y1="229.3" x2="41.6" y2="227.1"/>
		<line class="st42" x1="41.6" y1="227.1" x2="39.3" y2="224.8"/>
		<line class="st42" x1="39.3" y1="224.8" x2="39.3" y2="220.4"/>
		<line class="st42" x1="39.3" y1="220.4" x2="41.6" y2="218.1"/>
		<line class="st42" x1="41.6" y1="218.1" x2="39.3" y2="215.9"/>
		<line class="st42" x1="39.3" y1="215.9" x2="39.3" y2="211.4"/>
		<line class="st42" x1="39.3" y1="211.4" x2="41.6" y2="209.2"/>
		<line class="st42" x1="41.6" y1="209.2" x2="39.3" y2="207"/>
		<line class="st42" x1="39.3" y1="207" x2="39.3" y2="202.5"/>
		<line class="st42" x1="39.3" y1="202.5" x2="41.6" y2="200.3"/>
		<line class="st42" x1="41.6" y1="200.3" x2="39.3" y2="198"/>
		<line class="st42" x1="39.3" y1="198" x2="39.3" y2="193.6"/>
		<line class="st42" x1="39.3" y1="193.6" x2="41.6" y2="191.3"/>
		<line class="st42" x1="41.6" y1="191.3" x2="39.3" y2="189.1"/>
		<line class="st42" x1="39.3" y1="189.1" x2="39.3" y2="184.6"/>
		<line class="st42" x1="39.3" y1="184.6" x2="41.6" y2="182.4"/>
		<line class="st42" x1="41.6" y1="182.4" x2="39.3" y2="180.2"/>
		<line class="st42" x1="39.3" y1="180.2" x2="39.3" y2="175.7"/>
		<line class="st42" x1="39.3" y1="175.7" x2="41.6" y2="173.5"/>
		<line class="st42" x1="41.6" y1="173.5" x2="39.3" y2="171.2"/>
		<line class="st42" x1="39.3" y1="171.2" x2="39.3" y2="166.8"/>
		<line class="st42" x1="39.3" y1="166.8" x2="41.6" y2="164.5"/>
		<line class="st42" x1="55" y1="164.5" x2="57.2" y2="166.8"/>
		<line class="st42" x1="55" y1="173.5" x2="57.2" y2="171.2"/>
		<line class="st42" x1="55" y1="173.5" x2="57.2" y2="175.7"/>
		<line class="st42" x1="55" y1="182.4" x2="57.2" y2="180.2"/>
		<line class="st42" x1="41.6" y1="227.1" x2="55" y2="227.1"/>
		<line class="st42" x1="41.6" y1="218.1" x2="55" y2="218.1"/>
		<line class="st42" x1="41.6" y1="209.2" x2="55" y2="209.2"/>
		<line class="st42" x1="41.6" y1="200.3" x2="55" y2="200.3"/>
		<line class="st42" x1="41.6" y1="191.3" x2="55" y2="191.3"/>
		<line class="st42" x1="41.6" y1="182.4" x2="55" y2="182.4"/>
		<line class="st42" x1="41.6" y1="173.5" x2="55" y2="173.5"/>
		<line class="st43" x1="41.4" y1="135.5" x2="54.9" y2="135.5"/>
		<line class="st42" x1="57.2" y1="171.2" x2="57.2" y2="166.8"/>
		<line class="st42" x1="57.2" y1="180.2" x2="57.2" y2="175.7"/>
		<line class="st42" x1="57.2" y1="189.1" x2="57.2" y2="184.6"/>
		<line class="st42" x1="57.2" y1="198" x2="57.2" y2="193.6"/>
		<line class="st42" x1="57.2" y1="207" x2="57.2" y2="202.5"/>
		<line class="st42" x1="57.2" y1="215.9" x2="57.2" y2="211.4"/>
		<line class="st42" x1="57.2" y1="224.8" x2="57.2" y2="220.4"/>
		<line class="st42" x1="57.2" y1="233.8" x2="57.2" y2="229.3"/>
		<line class="st43" x1="54.9" y1="135.5" x2="57.1" y2="133.3"/>
		<line class="st43" x1="57.1" y1="128.8" x2="54.9" y2="126.5"/>
		<line class="st43" x1="54.9" y1="126.5" x2="57.1" y2="124.3"/>
		<line class="st43" x1="57.1" y1="119.8" x2="54.9" y2="117.6"/>
		<line class="st43" x1="54.9" y1="117.6" x2="57.1" y2="115.3"/>
		<line class="st43" x1="57.1" y1="110.9" x2="54.9" y2="108.6"/>
		<line class="st43" x1="54.9" y1="108.6" x2="57.1" y2="106.4"/>
		<line class="st43" x1="57.1" y1="101.9" x2="54.9" y2="99.7"/>
		<line class="st43" x1="54.9" y1="99.7" x2="57.1" y2="97.4"/>
		<line class="st43" x1="57.1" y1="92.9" x2="54.9" y2="90.7"/>
		<line class="st43" x1="54.9" y1="90.7" x2="57.1" y2="88.5"/>
		<line class="st43" x1="57.1" y1="84" x2="54.9" y2="81.7"/>
		<line class="st43" x1="54.9" y1="135.5" x2="41.4" y2="135.5"/>
		<line class="st43" x1="41.4" y1="135.5" x2="39.2" y2="133.3"/>
		<line class="st43" x1="39.2" y1="133.3" x2="39.2" y2="128.8"/>
		<line class="st43" x1="39.2" y1="128.8" x2="41.4" y2="126.5"/>
		<line class="st43" x1="41.4" y1="126.5" x2="39.2" y2="124.3"/>
		<line class="st43" x1="39.2" y1="124.3" x2="39.2" y2="119.8"/>
		<line class="st43" x1="39.2" y1="119.8" x2="41.4" y2="117.6"/>
		<line class="st43" x1="41.4" y1="117.6" x2="39.2" y2="115.3"/>
		<line class="st43" x1="39.2" y1="115.3" x2="39.2" y2="110.9"/>
		<line class="st43" x1="39.2" y1="110.9" x2="41.4" y2="108.6"/>
		<line class="st43" x1="41.4" y1="108.6" x2="39.2" y2="106.4"/>
		<line class="st43" x1="39.2" y1="106.4" x2="39.2" y2="101.9"/>
		<line class="st43" x1="39.2" y1="101.9" x2="41.4" y2="99.7"/>
		<line class="st43" x1="41.4" y1="99.7" x2="39.2" y2="97.4"/>
		<line class="st43" x1="39.2" y1="97.4" x2="39.2" y2="92.9"/>
		<line class="st43" x1="39.2" y1="92.9" x2="41.4" y2="90.7"/>
		<line class="st43" x1="41.4" y1="90.7" x2="39.2" y2="88.5"/>
		<line class="st43" x1="39.2" y1="88.5" x2="39.2" y2="84"/>
		<line class="st43" x1="39.2" y1="84" x2="41.4" y2="81.7"/>
		<line class="st43" x1="41.4" y1="81.7" x2="39.2" y2="79.5"/>
		<line class="st43" x1="39.2" y1="79.5" x2="39.2" y2="75"/>
		<line class="st43" x1="39.2" y1="75" x2="41.4" y2="72.8"/>
		<line class="st43" x1="41.4" y1="72.8" x2="39.2" y2="70.5"/>
		<line class="st43" x1="39.2" y1="70.5" x2="39.2" y2="66"/>
		<line class="st43" x1="39.2" y1="66" x2="41.4" y2="63.8"/>
		<line class="st43" x1="54.9" y1="63.8" x2="57.1" y2="66"/>
		<line class="st43" x1="54.9" y1="72.8" x2="57.1" y2="70.5"/>
		<line class="st43" x1="54.9" y1="72.8" x2="57.1" y2="75"/>
		<line class="st43" x1="54.9" y1="81.7" x2="57.1" y2="79.5"/>
		<line class="st43" x1="41.4" y1="126.5" x2="54.9" y2="126.5"/>
		<line class="st43" x1="41.4" y1="117.6" x2="54.9" y2="117.6"/>
		<line class="st43" x1="41.4" y1="108.6" x2="54.9" y2="108.6"/>
		<line class="st43" x1="41.4" y1="99.7" x2="54.9" y2="99.7"/>
		<line class="st43" x1="41.4" y1="90.7" x2="54.9" y2="90.7"/>
		<line class="st43" x1="41.4" y1="81.7" x2="54.9" y2="81.7"/>
		<line class="st43" x1="41.4" y1="72.8" x2="54.9" y2="72.8"/>
		<line class="st43" x1="57.1" y1="70.5" x2="57.1" y2="66"/>
		<line class="st43" x1="57.1" y1="79.5" x2="57.1" y2="75"/>
		<line class="st43" x1="57.1" y1="88.5" x2="57.1" y2="84"/>
		<line class="st43" x1="57.1" y1="97.4" x2="57.1" y2="92.9"/>
		<line class="st43" x1="57.1" y1="106.4" x2="57.1" y2="101.9"/>
		<line class="st43" x1="57.1" y1="115.3" x2="57.1" y2="110.9"/>
		<line class="st43" x1="57.1" y1="124.3" x2="57.1" y2="119.8"/>
		<line class="st43" x1="57.1" y1="133.3" x2="57.1" y2="128.8"/>
		<circle class="st44" cx="52.7" cy="231.6" r="2.5"/>
		<circle class="st44" cx="43.8" cy="231.6" r="2.5"/>
		<circle class="st44" cx="74.9" cy="259.4" r="2.5"/>
		<circle class="st44" cx="66" cy="259.4" r="2.5"/>
		<circle class="st44" cx="92.8" cy="259.4" r="2.5"/>
		<circle class="st44" cx="83.8" cy="259.4" r="2.5"/>
		<circle class="st44" cx="111.3" cy="259.4" r="2.5"/>
		<circle class="st44" cx="102.4" cy="259.4" r="2.5"/>
		<circle class="st44" cx="137.5" cy="259.4" r="2.5"/>
		<circle class="st44" cx="128.6" cy="259.4" r="2.5"/>
		<circle class="st44" cx="157.2" cy="259.4" r="2.5"/>
		<circle class="st44" cx="148.3" cy="259.4" r="2.5"/>
		<circle class="st44" cx="137.1" cy="249.1" r="2.5"/>
		<circle class="st44" cx="128.1" cy="249.1" r="2.5"/>
		<circle class="st44" cx="156.8" cy="249.1" r="2.5"/>
		<circle class="st44" cx="147.8" cy="249.1" r="2.5"/>
		<circle class="st44" cx="52.7" cy="222.6" r="2.5"/>
		<circle class="st44" cx="43.8" cy="222.6" r="2.5"/>
		
			<ellipse transform="matrix(0.1222 -0.9925 0.9925 0.1222 -165.7818 239.9193)" class="st44" cx="52.7" cy="213.7" rx="2.5" ry="2.5"/>
		
			<ellipse transform="matrix(0.1602 -0.9871 0.9871 0.1602 -174.1317 222.6939)" class="st44" cx="43.8" cy="213.7" rx="2.5" ry="2.5"/>
		<circle class="st44" cx="52.7" cy="204.7" r="2.5"/>
		<circle class="st44" cx="43.8" cy="204.7" r="2.5"/>
		<circle class="st44" cx="52.7" cy="195.8" r="2.5"/>
		<circle class="st44" cx="43.8" cy="195.8" r="2.5"/>
		
			<ellipse transform="matrix(9.853747e-02 -0.9951 0.9951 9.853747e-02 -138.4205 220.9462)" class="st44" cx="52.7" cy="186.9" rx="2.5" ry="2.5"/>
		<circle class="st44" cx="43.8" cy="186.9" r="2.5"/>
		<circle class="st44" cx="52.7" cy="177.9" r="2.5"/>
		<circle class="st44" cx="43.8" cy="177.9" r="2.5"/>
		<circle class="st44" cx="52.7" cy="169" r="2.5"/>
		<circle class="st44" cx="43.8" cy="169" r="2.5"/>
		<circle class="st45" cx="52.6" cy="131" r="2.6"/>
		<circle class="st45" cx="43.7" cy="131" r="2.6"/>
		<circle class="st45" cx="52.6" cy="122.1" r="2.6"/>
		<circle class="st45" cx="43.7" cy="122.1" r="2.6"/>
		<circle class="st45" cx="52.6" cy="113.1" r="2.6"/>
		<circle class="st45" cx="43.7" cy="113.1" r="2.6"/>
		<circle class="st45" cx="52.6" cy="104.1" r="2.6"/>
		<circle class="st45" cx="43.7" cy="104.1" r="2.6"/>
		<circle class="st45" cx="52.6" cy="95.2" r="2.6"/>
		<circle class="st45" cx="43.7" cy="95.2" r="2.6"/>
		<circle class="st45" cx="52.6" cy="86.2" r="2.6"/>
		<circle class="st45" cx="43.7" cy="86.2" r="2.6"/>
		<circle class="st45" cx="52.6" cy="77.3" r="2.6"/>
		<circle class="st45" cx="43.7" cy="77.3" r="2.6"/>
		<circle class="st45" cx="52.6" cy="68.3" r="2.6"/>
		<circle class="st45" cx="43.7" cy="68.3" r="2.6"/>
		<circle class="st45" cx="165.7" cy="41" r="2.6"/>
		<circle class="st45" cx="156.7" cy="41" r="2.6"/>
		<g>
			<rect x="66.3" y="60.5" class="st23" width="8" height="2.8"/>
			<path class="st46" d="M67.5,63.4L67.5,63.4c0.2-0.3,0.2-0.8,0.2-1.1c0-0.3,0-1.4-0.1-1.7h-1.2v2.7H67.5z"/>
			<path class="st46" d="M73.1,63.2v0.1h1.2v-2.7h-1.2c-0.1,0.3-0.2,1.4-0.2,1.7C72.9,62.6,72.9,62.9,73.1,63.2z"/>
		</g>
		<g>
			<rect x="66.3" y="66.9" class="st23" width="8" height="2.8"/>
			<path class="st46" d="M67.5,69.7L67.5,69.7c0.2-0.3,0.2-0.8,0.2-1.1c0-0.3,0-1.4-0.1-1.7h-1.2v2.7H67.5z"/>
			<path class="st46" d="M73.1,69.6v0.1h1.2V67h-1.2c-0.1,0.3-0.2,1.4-0.2,1.7C72.9,69,72.9,69.3,73.1,69.6z"/>
		</g>
		<g>
			<rect x="66.3" y="72.6" class="st23" width="8" height="2.8"/>
			<path class="st46" d="M67.5,75.4L67.5,75.4c0.2-0.3,0.2-0.8,0.2-1.1c0-0.3,0-1.4-0.1-1.7h-1.2v2.7H67.5z"/>
			<path class="st46" d="M73.1,75.3v0.1h1.2v-2.7h-1.2c-0.1,0.3-0.2,1.4-0.2,1.7C72.9,74.7,72.9,75,73.1,75.3z"/>
		</g>
		<g>
			<rect x="66.3" y="78.3" class="st23" width="8" height="2.8"/>
			<path class="st46" d="M67.5,81.2L67.5,81.2c0.2-0.3,0.2-0.8,0.2-1.1c0-0.3,0-1.4-0.1-1.7h-1.2v2.7H67.5z"/>
			<path class="st46" d="M73.1,81v0.1h1.2v-2.7h-1.2c-0.1,0.3-0.2,1.4-0.2,1.7C72.9,80.4,72.9,80.7,73.1,81z"/>
		</g>
		<g>
			<rect x="66.3" y="84.7" class="st23" width="8" height="2.8"/>
			<path class="st46" d="M67.5,87.5L67.5,87.5c0.2-0.3,0.2-0.8,0.2-1.1c0-0.3,0-1.4-0.1-1.7h-1.2v2.7H67.5z"/>
			<path class="st46" d="M73.1,87.4v0.1h1.2v-2.7h-1.2c-0.1,0.3-0.2,1.4-0.2,1.7C72.9,86.8,72.9,87.1,73.1,87.4z"/>
		</g>
		<g>
			<rect x="66.3" y="90.4" class="st23" width="8" height="2.8"/>
			<path class="st46" d="M67.5,93.2L67.5,93.2c0.2-0.3,0.2-0.8,0.2-1.1c0-0.3,0-1.4-0.1-1.7h-1.2v2.7H67.5z"/>
			<path class="st46" d="M73.1,93.1v0.1h1.2v-2.7h-1.2c-0.1,0.3-0.2,1.4-0.2,1.7C72.9,92.5,72.9,92.8,73.1,93.1z"/>
		</g>
		<g>
			<rect x="66.3" y="96.7" class="st23" width="8" height="2.8"/>
			<path class="st46" d="M67.5,99.5L67.5,99.5c0.2-0.3,0.2-0.8,0.2-1.1c0-0.3,0-1.4-0.1-1.7h-1.2v2.7H67.5z"/>
			<path class="st46" d="M73.1,99.4v0.1h1.2v-2.7h-1.2c-0.1,0.3-0.2,1.4-0.2,1.7C72.9,98.8,72.9,99.1,73.1,99.4z"/>
		</g>
		<g>
			<rect x="66.3" y="103" class="st23" width="8" height="2.8"/>
			<path class="st46" d="M67.5,105.9L67.5,105.9c0.2-0.3,0.2-0.8,0.2-1.1c0-0.3,0-1.4-0.1-1.7h-1.2v2.7H67.5z"/>
			<path class="st46" d="M73.1,105.8v0.1h1.2v-2.7h-1.2c-0.1,0.3-0.2,1.4-0.2,1.7C72.9,105.1,72.9,105.5,73.1,105.8z"/>
		</g>
		<g>
			<rect x="66.3" y="108.8" class="st23" width="8" height="2.8"/>
			<path class="st46" d="M67.5,111.6L67.5,111.6c0.2-0.3,0.2-0.8,0.2-1.1c0-0.3,0-1.4-0.1-1.7h-1.2v2.7H67.5z"/>
			<path class="st46" d="M73.1,111.5v0.1h1.2v-2.7h-1.2c-0.1,0.3-0.2,1.4-0.2,1.7C72.9,110.9,72.9,111.2,73.1,111.5z"/>
		</g>
		<g>
			<rect x="66.3" y="113.7" class="st23" width="8" height="2.8"/>
			<path class="st46" d="M67.5,116.6L67.5,116.6c0.2-0.3,0.2-0.8,0.2-1.1c0-0.3,0-1.4-0.1-1.7h-1.2v2.7H67.5z"/>
			<path class="st46" d="M73.1,116.5v0.1h1.2v-2.7h-1.2c-0.1,0.3-0.2,1.4-0.2,1.7C72.9,115.8,72.9,116.2,73.1,116.5z"/>
		</g>
		<g>
			<rect x="66.3" y="120.1" class="st23" width="8" height="2.8"/>
			<path class="st46" d="M67.5,122.9L67.5,122.9c0.2-0.3,0.2-0.8,0.2-1.1c0-0.3,0-1.4-0.1-1.7h-1.2v2.7H67.5z"/>
			<path class="st46" d="M73.1,122.8v0.1h1.2v-2.7h-1.2c-0.1,0.3-0.2,1.4-0.2,1.7C72.9,122.2,72.9,122.5,73.1,122.8z"/>
		</g>
		<g>
			<rect x="66.3" y="125.8" class="st23" width="8" height="2.8"/>
			<path class="st46" d="M67.5,128.6L67.5,128.6c0.2-0.3,0.2-0.8,0.2-1.1c0-0.3,0-1.4-0.1-1.7h-1.2v2.7H67.5z"/>
			<path class="st46" d="M73.1,128.5v0.1h1.2v-2.7h-1.2c-0.1,0.3-0.2,1.4-0.2,1.7C72.9,127.9,72.9,128.2,73.1,128.5z"/>
		</g>
		<g>
			<rect x="66.3" y="149.6" class="st23" width="8" height="2.8"/>
			<path class="st46" d="M67.5,152.4L67.5,152.4c0.2-0.3,0.2-0.8,0.2-1.1c0-0.3,0-1.4-0.1-1.7h-1.2v2.7H67.5z"/>
			<path class="st46" d="M73.1,152.3v0.1h1.2v-2.7h-1.2c-0.1,0.3-0.2,1.4-0.2,1.7C72.9,151.7,72.9,152,73.1,152.3z"/>
		</g>
		<g>
			<rect x="66.3" y="155.9" class="st23" width="8" height="2.8"/>
			<path class="st46" d="M67.5,158.7L67.5,158.7c0.2-0.3,0.2-0.8,0.2-1.1c0-0.3,0-1.4-0.1-1.7h-1.2v2.7H67.5z"/>
			<path class="st46" d="M73.1,158.6v0.1h1.2V156h-1.2c-0.1,0.3-0.2,1.4-0.2,1.7C72.9,158,72.9,158.3,73.1,158.6z"/>
		</g>
		<g>
			<rect x="66.3" y="161.6" class="st23" width="8" height="2.8"/>
			<path class="st46" d="M67.5,164.5L67.5,164.5c0.2-0.3,0.2-0.8,0.2-1.1c0-0.3,0-1.4-0.1-1.7h-1.2v2.7H67.5z"/>
			<path class="st46" d="M73.1,164.4v0.1h1.2v-2.7h-1.2c-0.1,0.3-0.2,1.4-0.2,1.7C72.9,163.7,72.9,164.1,73.1,164.4z"/>
		</g>
		<g>
			<rect x="66.3" y="166" class="st23" width="8" height="2.8"/>
			<path class="st46" d="M67.5,168.8L67.5,168.8c0.2-0.3,0.2-0.8,0.2-1.1c0-0.3,0-1.4-0.1-1.7h-1.2v2.7H67.5z"/>
			<path class="st46" d="M73.1,168.7v0.1h1.2v-2.7h-1.2c-0.1,0.3-0.2,1.4-0.2,1.7C72.9,168.1,72.9,168.4,73.1,168.7z"/>
		</g>
		<g>
			<rect x="66.3" y="172.4" class="st23" width="8" height="2.8"/>
			<path class="st46" d="M67.5,175.2L67.5,175.2c0.2-0.3,0.2-0.8,0.2-1.1c0-0.3,0-1.4-0.1-1.7h-1.2v2.7H67.5z"/>
			<path class="st46" d="M73.1,175.1v0.1h1.2v-2.7h-1.2c-0.1,0.3-0.2,1.4-0.2,1.7C72.9,174.5,72.9,174.8,73.1,175.1z"/>
		</g>
		<g>
			<rect x="66.3" y="178.1" class="st23" width="8" height="2.8"/>
			<path class="st46" d="M67.5,180.9L67.5,180.9c0.2-0.3,0.2-0.8,0.2-1.1c0-0.3,0-1.4-0.1-1.7h-1.2v2.7H67.5z"/>
			<path class="st46" d="M73.1,180.8v0.1h1.2v-2.7h-1.2c-0.1,0.3-0.2,1.4-0.2,1.7C72.9,180.2,72.9,180.5,73.1,180.8z"/>
		</g>
		<g>
			<rect x="66" y="183.9" class="st23" width="8" height="2.8"/>
			<path class="st46" d="M67.1,186.7L67.1,186.7c0.2-0.3,0.2-0.8,0.2-1.1c0-0.3,0-1.4-0.1-1.7H66v2.7H67.1z"/>
			<path class="st46" d="M72.7,186.6v0.1h1.2V184h-1.2c-0.1,0.3-0.2,1.4-0.2,1.7C72.5,186,72.6,186.3,72.7,186.6z"/>
		</g>
		<g>
			<rect x="66" y="190.2" class="st23" width="8" height="2.8"/>
			<path class="st46" d="M67.1,193.1L67.1,193.1c0.2-0.3,0.2-0.8,0.2-1.1c0-0.3,0-1.4-0.1-1.7H66v2.7H67.1z"/>
			<path class="st46" d="M72.7,193v0.1h1.2v-2.7h-1.2c-0.1,0.3-0.2,1.4-0.2,1.7C72.5,192.3,72.6,192.7,72.7,193z"/>
		</g>
		<g>
			<rect x="66" y="196" class="st23" width="8" height="2.8"/>
			<path class="st46" d="M67.1,198.8L67.1,198.8c0.2-0.3,0.2-0.8,0.2-1.1c0-0.3,0-1.4-0.1-1.7H66v2.7H67.1z"/>
			<path class="st46" d="M72.7,198.7v0.1h1.2v-2.7h-1.2c-0.1,0.3-0.2,1.4-0.2,1.7C72.5,198.1,72.6,198.4,72.7,198.7z"/>
		</g>
		<g>
			<rect x="66.3" y="201.8" class="st23" width="8" height="2.8"/>
			<path class="st46" d="M67.5,204.6L67.5,204.6c0.2-0.3,0.2-0.8,0.2-1.1c0-0.3,0-1.4-0.1-1.7h-1.2v2.7H67.5z"/>
			<path class="st46" d="M73.1,204.5v0.1h1.2v-2.7h-1.2c-0.1,0.3-0.2,1.4-0.2,1.7C72.9,203.9,72.9,204.2,73.1,204.5z"/>
		</g>
		<g>
			<rect x="66.3" y="208.1" class="st23" width="8" height="2.8"/>
			<path class="st46" d="M67.5,210.9L67.5,210.9c0.2-0.3,0.2-0.8,0.2-1.1c0-0.3,0-1.4-0.1-1.7h-1.2v2.7H67.5z"/>
			<path class="st46" d="M73.1,210.8v0.1h1.2v-2.7h-1.2c-0.1,0.3-0.2,1.4-0.2,1.7C72.9,210.2,72.9,210.5,73.1,210.8z"/>
		</g>
		<g>
			<rect x="66.3" y="213.8" class="st23" width="8" height="2.8"/>
			<path class="st46" d="M67.5,216.7L67.5,216.7c0.2-0.3,0.2-0.8,0.2-1.1c0-0.3,0-1.4-0.1-1.7h-1.2v2.7H67.5z"/>
			<path class="st46" d="M73.1,216.6v0.1h1.2v-2.7h-1.2c-0.1,0.3-0.2,1.4-0.2,1.7C72.9,215.9,72.9,216.3,73.1,216.6z"/>
		</g>
		<g>
			<rect x="78.6" y="203.2" class="st23" width="8" height="2.8"/>
			<path class="st46" d="M79.7,206L79.7,206c0.2-0.3,0.2-0.8,0.2-1.1c0-0.3,0-1.4-0.1-1.7h-1.2v2.7H79.7z"/>
			<path class="st46" d="M85.3,205.9v0.1h1.2v-2.7h-1.2c-0.1,0.3-0.2,1.4-0.2,1.7C85.1,205.3,85.2,205.6,85.3,205.9z"/>
		</g>
		<g>
			<rect x="94.3" y="228.8" class="st23" width="2.8" height="8"/>
			<path class="st46" d="M97.2,235.6L97.2,235.6c-0.3-0.2-0.8-0.2-1.1-0.2c-0.3,0-1.4,0-1.7,0.1v1.2h2.7V235.6z"/>
			<path class="st46" d="M97.1,230.1h0.1v-1.2h-2.7v1.2c0.3,0.1,1.4,0.2,1.7,0.2C96.4,230.3,96.8,230.2,97.1,230.1z"/>
		</g>
		<g>
			<rect x="87.4" y="227.8" class="st23" width="2.8" height="8"/>
			<path class="st46" d="M90.2,234.6L90.2,234.6c-0.3-0.2-0.8-0.2-1.1-0.2c-0.3,0-1.4,0-1.7,0.1v1.2h2.7V234.6z"/>
			<path class="st46" d="M90.1,229.1h0.1v-1.2h-2.7v1.2c0.3,0.1,1.4,0.2,1.7,0.2C89.5,229.3,89.8,229.2,90.1,229.1z"/>
		</g>
		<g>
			<rect x="93.5" y="211.7" class="st23" width="2.8" height="8"/>
			<path class="st46" d="M96.3,218.6L96.3,218.6c-0.3-0.2-0.8-0.2-1.1-0.2c-0.3,0-1.4,0-1.7,0.1v1.2h2.7V218.6z"/>
			<path class="st46" d="M96.2,213h0.1v-1.2h-2.7v1.2c0.3,0.1,1.4,0.2,1.7,0.2C95.6,213.2,95.9,213.1,96.2,213z"/>
		</g>
		<g>
			<rect x="87.4" y="211.7" class="st23" width="2.8" height="8"/>
			<path class="st46" d="M90.3,218.6L90.3,218.6c-0.3-0.2-0.8-0.2-1.1-0.2c-0.3,0-1.4,0-1.7,0.1v1.2h2.7V218.6z"/>
			<path class="st46" d="M90.2,213h0.1v-1.2h-2.7v1.2c0.3,0.1,1.4,0.2,1.7,0.2C89.6,213.2,89.9,213.1,90.2,213z"/>
		</g>
		<g>
			<rect x="130.5" y="217.9" class="st23" width="8" height="2.8"/>
			<path class="st46" d="M131.7,220.7L131.7,220.7c0.2-0.3,0.2-0.8,0.2-1.1c0-0.3,0-1.4-0.1-1.7h-1.2v2.7H131.7z"/>
			<path class="st46" d="M137.2,220.6v0.1h1.2V218h-1.2c-0.1,0.3-0.2,1.4-0.2,1.7C137.1,220,137.1,220.3,137.2,220.6z"/>
		</g>
		<g>
			<rect x="130.1" y="223.2" class="st23" width="8" height="2.8"/>
			<path class="st46" d="M131.3,226.1L131.3,226.1c0.2-0.3,0.2-0.8,0.2-1.1c0-0.3,0-1.4-0.1-1.7h-1.2v2.7H131.3z"/>
			<path class="st46" d="M136.8,226v0.1h1.2v-2.7h-1.2c-0.1,0.3-0.2,1.4-0.2,1.7C136.6,225.3,136.7,225.7,136.8,226z"/>
		</g>
		<g>
			<rect x="177.3" y="215" class="st23" width="8" height="2.8"/>
			<path class="st46" d="M178.5,217.9L178.5,217.9c0.2-0.3,0.2-0.8,0.2-1.1c0-0.3,0-1.4-0.1-1.7h-1.2v2.7H178.5z"/>
			<path class="st46" d="M184.1,217.8v0.1h1.2v-2.7h-1.2c-0.1,0.3-0.2,1.4-0.2,1.7C183.9,217.1,183.9,217.5,184.1,217.8z"/>
		</g>
		<g>
			<rect x="198.5" y="253" class="st23" width="8" height="2.8"/>
			<path class="st46" d="M199.6,255.9L199.6,255.9c0.2-0.3,0.2-0.8,0.2-1.1c0-0.3,0-1.4-0.1-1.7h-1.2v2.7H199.6z"/>
			<path class="st46" d="M205.2,255.8v0.1h1.2v-2.7h-1.2c-0.1,0.3-0.2,1.4-0.2,1.7C205,255.1,205.1,255.5,205.2,255.8z"/>
		</g>
		<g>
			<rect x="211.5" y="253.6" class="st23" width="8" height="2.8"/>
			<path class="st46" d="M212.6,256.4L212.6,256.4c0.2-0.3,0.2-0.8,0.2-1.1c0-0.3,0-1.4-0.1-1.7h-1.2v2.7H212.6z"/>
			<path class="st46" d="M218.2,256.3v0.1h1.2v-2.7h-1.2c-0.1,0.3-0.2,1.4-0.2,1.7C218,255.7,218.1,256,218.2,256.3z"/>
		</g>
		<g>
			<rect x="78.6" y="190.2" class="st23" width="8" height="2.8"/>
			<path class="st46" d="M79.7,193.1L79.7,193.1c0.2-0.3,0.2-0.8,0.2-1.1c0-0.3,0-1.4-0.1-1.7h-1.2v2.7H79.7z"/>
			<path class="st46" d="M85.3,193v0.1h1.2v-2.7h-1.2c-0.1,0.3-0.2,1.4-0.2,1.7C85.1,192.3,85.2,192.7,85.3,193z"/>
		</g>
		<g>
			<rect x="95.8" y="153.2" class="st23" width="8" height="2.8"/>
			<path class="st46" d="M96.9,156L96.9,156c0.2-0.3,0.2-0.8,0.2-1.1c0-0.3,0-1.4-0.1-1.7h-1.2v2.7H96.9z"/>
			<path class="st46" d="M102.5,155.9v0.1h1.2v-2.7h-1.2c-0.1,0.3-0.2,1.4-0.2,1.7C102.3,155.3,102.4,155.6,102.5,155.9z"/>
		</g>
		<g>
			<rect x="109.7" y="148.5" class="st23" width="8" height="2.8"/>
			<path class="st46" d="M110.8,151.4L110.8,151.4c0.2-0.3,0.2-0.8,0.2-1.1c0-0.3,0-1.4-0.1-1.7h-1.2v2.7H110.8z"/>
			<path class="st46" d="M116.4,151.3v0.1h1.2v-2.7h-1.2c-0.1,0.3-0.2,1.4-0.2,1.7C116.2,150.6,116.3,151,116.4,151.3z"/>
		</g>
		<g>
			<rect x="120.8" y="148.6" class="st23" width="8" height="2.8"/>
			<path class="st46" d="M121.9,151.4L121.9,151.4c0.2-0.3,0.2-0.8,0.2-1.1c0-0.3,0-1.4-0.1-1.7h-1.2v2.7H121.9z"/>
			<path class="st46" d="M127.5,151.3v0.1h1.2v-2.7h-1.2c-0.1,0.3-0.2,1.4-0.2,1.7C127.3,150.7,127.4,151,127.5,151.3z"/>
		</g>
		<g>
			<rect x="141.7" y="104.9" class="st23" width="2.8" height="8"/>
			<path class="st46" d="M144.5,111.7L144.5,111.7c-0.3-0.2-0.8-0.2-1.1-0.2c-0.3,0-1.4,0-1.7,0.1v1.2h2.7V111.7z"/>
			<path class="st46" d="M144.4,106.1h0.1v-1.2h-2.7v1.2c0.3,0.1,1.4,0.2,1.7,0.2C143.8,106.3,144.1,106.2,144.4,106.1z"/>
		</g>
		<g>
			<rect x="178.5" y="114.4" class="st23" width="2.8" height="8"/>
			<path class="st46" d="M181.3,121.2L181.3,121.2c-0.3-0.2-0.8-0.2-1.1-0.2c-0.3,0-1.4,0-1.7,0.1v1.2h2.7V121.2z"/>
			<path class="st46" d="M181.2,115.6h0.1v-1.2h-2.7v1.2c0.3,0.1,1.4,0.2,1.7,0.2C180.6,115.8,180.9,115.7,181.2,115.6z"/>
		</g>
		<g>
			<rect x="228.6" y="128.7" class="st23" width="2.8" height="8"/>
			<path class="st46" d="M231.4,135.5L231.4,135.5c-0.3-0.2-0.8-0.2-1.1-0.2c-0.3,0-1.4,0-1.7,0.1v1.2h2.7V135.5z"/>
			<path class="st46" d="M231.3,129.9h0.1v-1.2h-2.7v1.2c0.3,0.1,1.4,0.2,1.7,0.2C230.7,130.1,231,130,231.3,129.9z"/>
		</g>
		<g>
			<rect x="178.5" y="132.6" class="st23" width="2.8" height="8"/>
			<path class="st46" d="M181.4,139.5L181.4,139.5c-0.3-0.2-0.8-0.2-1.1-0.2c-0.3,0-1.4,0-1.7,0.1v1.2h2.7V139.5z"/>
			<path class="st46" d="M181.3,133.9h0.1v-1.2h-2.7v1.2c0.3,0.1,1.4,0.2,1.7,0.2C180.6,134.1,181,134,181.3,133.9z"/>
		</g>
		<g>
			<rect x="210" y="191.4" class="st23" width="2.8" height="8"/>
			<path class="st46" d="M212.8,198.2L212.8,198.2c-0.3-0.2-0.8-0.2-1.1-0.2c-0.3,0-1.4,0-1.7,0.1v1.2h2.7V198.2z"/>
			<path class="st46" d="M212.7,192.7h0.1v-1.2h-2.7v1.2c0.3,0.1,1.4,0.2,1.7,0.2C212.1,192.9,212.4,192.8,212.7,192.7z"/>
		</g>
		<g>
			<rect x="201" y="191.4" class="st23" width="2.8" height="8"/>
			<path class="st46" d="M203.9,198.2L203.9,198.2c-0.3-0.2-0.8-0.2-1.1-0.2c-0.3,0-1.4,0-1.7,0.1v1.2h2.7V198.2z"/>
			<path class="st46" d="M203.8,192.7h0.1v-1.2h-2.7v1.2c0.3,0.1,1.4,0.2,1.7,0.2C203.1,192.9,203.5,192.8,203.8,192.7z"/>
		</g>
		<g>
			<rect x="192.2" y="191.4" class="st23" width="2.8" height="8"/>
			<path class="st46" d="M195.1,198.2L195.1,198.2c-0.3-0.2-0.8-0.2-1.1-0.2c-0.3,0-1.4,0-1.7,0.1v1.2h2.7V198.2z"/>
			<path class="st46" d="M194.9,192.7h0.1v-1.2h-2.7v1.2c0.3,0.1,1.4,0.2,1.7,0.2C194.3,192.9,194.6,192.8,194.9,192.7z"/>
		</g>
		<g>
			<rect x="164.3" y="96" class="st23" width="2.8" height="8"/>
			<path class="st46" d="M167.1,102.8L167.1,102.8c-0.3-0.2-0.8-0.2-1.1-0.2c-0.3,0-1.4,0-1.7,0.1v1.2h2.7V102.8z"/>
			<path class="st46" d="M167,97.3h0.1V96h-2.7v1.2c0.3,0.1,1.4,0.2,1.7,0.2C166.4,97.5,166.7,97.4,167,97.3z"/>
		</g>
		<g>
			<rect x="176.6" y="94.6" class="st23" width="7.9" height="10.3"/>
			<path class="st46" d="M184.6,103.4v-0.1c-0.7-0.1-2.2-0.2-3-0.2c-0.8,0-4,0.1-4.7,0.2v1.6h7.7V103.4z"/>
			<path class="st46" d="M184.3,96.2h0.3v-1.6h-7.7v1.6c0.7,0.1,3.9,0.2,4.7,0.2C182.5,96.5,183.4,96.4,184.3,96.2z"/>
		</g>
		<g>
			<rect x="132.6" y="104.8" class="st23" width="2.8" height="8"/>
			<path class="st46" d="M135.5,111.6L135.5,111.6c-0.3-0.2-0.8-0.2-1.1-0.2c-0.3,0-1.4,0-1.7,0.1v1.2h2.7V111.6z"/>
			<path class="st46" d="M135.4,106h0.1v-1.2h-2.7v1.2c0.3,0.1,1.4,0.2,1.7,0.2C134.7,106.2,135.1,106.1,135.4,106z"/>
		</g>
		<g>
			<rect x="123.6" y="106.2" class="st23" width="2.8" height="8"/>
			<path class="st46" d="M126.5,113L126.5,113c-0.3-0.2-0.8-0.2-1.1-0.2c-0.3,0-1.4,0-1.7,0.1v1.2h2.7V113z"/>
			<path class="st46" d="M126.4,107.4h0.1v-1.2h-2.7v1.2c0.3,0.1,1.4,0.2,1.7,0.2C125.7,107.6,126.1,107.6,126.4,107.4z"/>
		</g>
		<g>
			<rect x="114.3" y="104.9" class="st23" width="2.8" height="8"/>
			<path class="st46" d="M117.1,111.7L117.1,111.7c-0.3-0.2-0.8-0.2-1.1-0.2c-0.3,0-1.4,0-1.7,0.1v1.2h2.7V111.7z"/>
			<path class="st46" d="M117,106.1h0.1v-1.2h-2.7v1.2c0.3,0.1,1.4,0.2,1.7,0.2C116.4,106.3,116.7,106.2,117,106.1z"/>
		</g>
		<g>
			<rect x="105.2" y="105.6" class="st23" width="2.8" height="8"/>
			<path class="st46" d="M108,112.4L108,112.4c-0.3-0.2-0.8-0.2-1.1-0.2c-0.3,0-1.4,0-1.7,0.1v1.2h2.7V112.4z"/>
			<path class="st46" d="M107.9,106.8h0.1v-1.2h-2.7v1.2c0.3,0.1,1.4,0.2,1.7,0.2C107.3,107,107.6,106.9,107.9,106.8z"/>
		</g>
		<g>
			<rect x="94.9" y="116.3" class="st23" width="2.8" height="8"/>
			<path class="st46" d="M97.7,123.1L97.7,123.1c-0.3-0.2-0.8-0.2-1.1-0.2c-0.3,0-1.4,0-1.7,0.1v1.2h2.7V123.1z"/>
			<path class="st46" d="M97.6,117.5h0.1v-1.2H95v1.2c0.3,0.1,1.4,0.2,1.7,0.2C97,117.7,97.3,117.6,97.6,117.5z"/>
		</g>
		<g>
			<rect x="94.4" y="101.6" class="st23" width="2.8" height="8"/>
			<path class="st46" d="M97.2,108.4L97.2,108.4c-0.3-0.2-0.8-0.2-1.1-0.2c-0.3,0-1.4,0-1.7,0.1v1.2h2.7V108.4z"/>
			<path class="st46" d="M97.1,102.9h0.1v-1.2h-2.7v1.2c0.3,0.1,1.4,0.2,1.7,0.2C96.5,103.1,96.8,103,97.1,102.9z"/>
		</g>
		<g>
			<rect x="175.9" y="180.4" class="st23" width="8" height="2.8"/>
			<path class="st46" d="M177.1,183.3L177.1,183.3c0.2-0.3,0.2-0.8,0.2-1.1c0-0.3,0-1.4-0.1-1.7h-1.2v2.7H177.1z"/>
			<path class="st46" d="M182.6,183.2v0.1h1.2v-2.7h-1.2c-0.1,0.3-0.2,1.4-0.2,1.7C182.4,182.5,182.5,182.9,182.6,183.2z"/>
		</g>
		<g>
			<rect x="175.9" y="190" class="st23" width="8" height="2.8"/>
			<path class="st46" d="M177.1,192.8L177.1,192.8c0.2-0.3,0.2-0.8,0.2-1.1c0-0.3,0-1.4-0.1-1.7h-1.2v2.7H177.1z"/>
			<path class="st46" d="M182.6,192.7v0.1h1.2V190h-1.2c-0.1,0.3-0.2,1.4-0.2,1.7C182.4,192.1,182.5,192.4,182.6,192.7z"/>
		</g>
		<g>
			<rect x="175.9" y="198.9" class="st23" width="8" height="2.8"/>
			<path class="st46" d="M177.1,201.7L177.1,201.7c0.2-0.3,0.2-0.8,0.2-1.1c0-0.3,0-1.4-0.1-1.7h-1.2v2.7H177.1z"/>
			<path class="st46" d="M182.6,201.6v0.1h1.2V199h-1.2c-0.1,0.3-0.2,1.4-0.2,1.7C182.4,201,182.5,201.3,182.6,201.6z"/>
		</g>
		<g>
			<rect x="190.2" y="135.2" class="st23" width="8" height="2.8"/>
			<path class="st46" d="M191.4,138L191.4,138c0.2-0.3,0.2-0.8,0.2-1.1c0-0.3,0-1.4-0.1-1.7h-1.2v2.7H191.4z"/>
			<path class="st46" d="M196.9,137.9v0.1h1.2v-2.7h-1.2c-0.1,0.3-0.2,1.4-0.2,1.7C196.7,137.3,196.8,137.6,196.9,137.9z"/>
		</g>
		<g>
			<rect x="189.5" y="126.2" class="st23" width="8" height="2.8"/>
			<path class="st46" d="M190.6,129L190.6,129c0.2-0.3,0.2-0.8,0.2-1.1c0-0.3,0-1.4-0.1-1.7h-1.2v2.7H190.6z"/>
			<path class="st46" d="M196.2,128.9v0.1h1.2v-2.7h-1.2c-0.1,0.3-0.2,1.4-0.2,1.7C196,128.3,196.1,128.6,196.2,128.9z"/>
		</g>
		<g>
			<rect x="234.3" y="98.6" class="st23" width="8" height="2.8"/>
			<path class="st46" d="M235.5,101.4L235.5,101.4c0.2-0.3,0.2-0.8,0.2-1.1c0-0.3,0-1.4-0.1-1.7h-1.2v2.7H235.5z"/>
			<path class="st46" d="M241,101.3v0.1h1.2v-2.7H241c-0.1,0.3-0.2,1.4-0.2,1.7C240.8,100.7,240.9,101,241,101.3z"/>
		</g>
		<g>
			<rect x="235" y="107.6" class="st23" width="8" height="2.8"/>
			<path class="st46" d="M236.2,110.5L236.2,110.5c0.2-0.3,0.2-0.8,0.2-1.1c0-0.3,0-1.4-0.1-1.7H235v2.7H236.2z"/>
			<path class="st46" d="M241.7,110.4v0.1h1.2v-2.7h-1.2c-0.1,0.3-0.2,1.4-0.2,1.7C241.5,109.7,241.6,110.1,241.7,110.4z"/>
		</g>
		<g>
			<rect x="235" y="116.5" class="st23" width="8" height="4.5"/>
			<path class="st46" d="M236.2,121L236.2,121c0.2-0.4,0.2-1.3,0.2-1.7c0-0.5,0-2.3-0.1-2.7H235v4.4H236.2z"/>
			<path class="st46" d="M241.7,120.8v0.2h1.2v-4.4h-1.2c-0.1,0.4-0.2,2.2-0.2,2.7C241.5,119.8,241.6,120.3,241.7,120.8z"/>
		</g>
		<g>
			<rect x="230.3" y="161.9" class="st23" width="8" height="3.3"/>
			<path class="st46" d="M231.5,165.3L231.5,165.3c0.2-0.3,0.2-0.9,0.2-1.3c0-0.3,0-1.7-0.1-2h-1.2v3.2H231.5z"/>
			<path class="st46" d="M237,165.2v0.1h1.2V162H237c-0.1,0.3-0.2,1.6-0.2,2C236.9,164.4,236.9,164.8,237,165.2z"/>
		</g>
		<g>
			<rect x="231.1" y="171.6" class="st23" width="8" height="3.3"/>
			<path class="st46" d="M232.2,174.9L232.2,174.9c0.2-0.3,0.2-0.9,0.2-1.3c0-0.3,0-1.7-0.1-2h-1.2v3.2H232.2z"/>
			<path class="st46" d="M237.8,174.8v0.1h1.2v-3.2h-1.2c-0.1,0.3-0.2,1.6-0.2,2C237.6,174,237.7,174.4,237.8,174.8z"/>
		</g>
		<g>
			<rect x="231.1" y="180.2" class="st23" width="8" height="3.3"/>
			<path class="st46" d="M232.2,183.5L232.2,183.5c0.2-0.3,0.2-0.9,0.2-1.3c0-0.3,0-1.7-0.1-2h-1.2v3.2H232.2z"/>
			<path class="st46" d="M237.8,183.4v0.1h1.2v-3.2h-1.2c-0.1,0.3-0.2,1.6-0.2,2C237.6,182.7,237.7,183,237.8,183.4z"/>
		</g>
		<g>
			<rect x="231.1" y="189.7" class="st23" width="8" height="3.3"/>
			<path class="st46" d="M232.2,193L232.2,193c0.2-0.3,0.2-0.9,0.2-1.3c0-0.3,0-1.7-0.1-2h-1.2v3.2H232.2z"/>
			<path class="st46" d="M237.8,192.9v0.1h1.2v-3.2h-1.2c-0.1,0.3-0.2,1.6-0.2,2C237.6,192.2,237.7,192.6,237.8,192.9z"/>
		</g>
		<g>
			<rect x="203.5" y="153.2" class="st23" width="8" height="2.8"/>
			<path class="st46" d="M204.6,156L204.6,156c0.2-0.3,0.2-0.8,0.2-1.1c0-0.3,0-1.4-0.1-1.7h-1.2v2.7H204.6z"/>
			<path class="st46" d="M210.2,155.9v0.1h1.2v-2.7h-1.2c-0.1,0.3-0.2,1.4-0.2,1.7C210,155.3,210.1,155.6,210.2,155.9z"/>
		</g>
		<g>
			<rect x="189.7" y="153.2" class="st23" width="8" height="2.8"/>
			<path class="st46" d="M190.8,156L190.8,156c0.2-0.3,0.2-0.8,0.2-1.1c0-0.3,0-1.4-0.1-1.7h-1.2v2.7H190.8z"/>
			<path class="st46" d="M196.4,155.9v0.1h1.2v-2.7h-1.2c-0.1,0.3-0.2,1.4-0.2,1.7C196.2,155.3,196.3,155.6,196.4,155.9z"/>
		</g>
		<g>
			<rect x="207.5" y="116.5" class="st23" width="8" height="2.8"/>
			<path class="st46" d="M208.6,119.3L208.6,119.3c0.2-0.3,0.2-0.8,0.2-1.1c0-0.3,0-1.4-0.1-1.7h-1.2v2.7H208.6z"/>
			<path class="st46" d="M214.2,119.2v0.1h1.2v-2.7h-1.2c-0.1,0.3-0.2,1.4-0.2,1.7C214,118.6,214.1,118.9,214.2,119.2z"/>
		</g>
		<g>
			<rect x="189" y="116.5" class="st23" width="8" height="3.8"/>
			<path class="st46" d="M190.2,120.2L190.2,120.2c0.2-0.3,0.2-1.1,0.2-1.4c0-0.4,0-1.9-0.1-2.2h-1.2v3.7H190.2z"/>
			<path class="st46" d="M195.8,120.1v0.1h1.2v-3.7h-1.2c-0.1,0.4-0.2,1.8-0.2,2.2C195.6,119.3,195.6,119.7,195.8,120.1z"/>
		</g>
		<g>
			<rect x="66.3" y="219.6" class="st23" width="8" height="2.8"/>
			<path class="st46" d="M67.5,222.5L67.5,222.5c0.2-0.3,0.2-0.8,0.2-1.1c0-0.3,0-1.4-0.1-1.7h-1.2v2.7H67.5z"/>
			<path class="st46" d="M73.1,222.4v0.1h1.2v-2.7h-1.2c-0.1,0.3-0.2,1.4-0.2,1.7C72.9,221.7,72.9,222.1,73.1,222.4z"/>
		</g>
		<g>
			<rect x="66.3" y="226" class="st23" width="8" height="2.8"/>
			<path class="st46" d="M67.5,228.8L67.5,228.8c0.2-0.3,0.2-0.8,0.2-1.1c0-0.3,0-1.4-0.1-1.7h-1.2v2.7H67.5z"/>
			<path class="st46" d="M73.1,228.7v0.1h1.2v-2.7h-1.2c-0.1,0.3-0.2,1.4-0.2,1.7C72.9,228.1,72.9,228.4,73.1,228.7z"/>
		</g>
		<g>
			<rect x="66.3" y="231.7" class="st23" width="8" height="2.8"/>
			<path class="st46" d="M67.5,234.5L67.5,234.5c0.2-0.3,0.2-0.8,0.2-1.1c0-0.3,0-1.4-0.1-1.7h-1.2v2.7H67.5z"/>
			<path class="st46" d="M73.1,234.4v0.1h1.2v-2.7h-1.2c-0.1,0.3-0.2,1.4-0.2,1.7C72.9,233.8,72.9,234.1,73.1,234.4z"/>
		</g>
		<g>
			<rect x="66.7" y="237.6" class="st23" width="8" height="2.8"/>
			<path class="st46" d="M67.9,240.5L67.9,240.5c0.2-0.3,0.2-0.8,0.2-1.1c0-0.3,0-1.4-0.1-1.7h-1.2v2.7H67.9z"/>
			<path class="st46" d="M73.5,240.4v0.1h1.2v-2.7h-1.2c-0.1,0.3-0.2,1.4-0.2,1.7C73.3,239.7,73.3,240.1,73.5,240.4z"/>
		</g>
		<g>
			<rect x="66.3" y="131.6" class="st23" width="8" height="2.8"/>
			<path class="st46" d="M67.5,134.5L67.5,134.5c0.2-0.3,0.2-0.8,0.2-1.1c0-0.3,0-1.4-0.1-1.7h-1.2v2.7H67.5z"/>
			<path class="st46" d="M73.1,134.4v0.1h1.2v-2.7h-1.2c-0.1,0.3-0.2,1.4-0.2,1.7C72.9,133.7,72.9,134.1,73.1,134.4z"/>
		</g>
		<g>
			<rect x="66.3" y="138" class="st23" width="8" height="2.8"/>
			<path class="st46" d="M67.5,140.8L67.5,140.8c0.2-0.3,0.2-0.8,0.2-1.1c0-0.3,0-1.4-0.1-1.7h-1.2v2.7H67.5z"/>
			<path class="st46" d="M73.1,140.7v0.1h1.2v-2.7h-1.2c-0.1,0.3-0.2,1.4-0.2,1.7C72.9,140.1,72.9,140.4,73.1,140.7z"/>
		</g>
		
			<rect x="111.8" y="115.5" transform="matrix(-1.836970e-16 1 -1 -1.836970e-16 256.6762 15.0877)" class="st47" width="17.9" height="40.7"/>
		<path class="st48" d="M100.9,135.9L100.9,135.9c0-4.7,3.8-8.6,8.6-8.6H131c4.7,0,8.6,3.8,8.6,8.6v0c0,4.7-3.8,8.6-8.6,8.6h-21.5
			C104.8,144.5,100.9,140.6,100.9,135.9z"/>
		<path class="st36" d="M166.7,182.2h3.6c0.1,0,0.2,0,0.3,0.1c0.1,0.1,0.1,0.2,0.1,0.3s0,0.2-0.1,0.3c-0.1,0.1-0.2,0.1-0.3,0.1h-0.5
			l0.8,0.9c0,0.1,0.1,0.1,0.1,0.2v0.8c0,0.3-0.1,0.6-0.3,0.8c-0.2,0.2-0.5,0.3-0.8,0.3h-0.2c-0.1,0-0.2,0-0.3-0.1
			c-0.1-0.1-0.1-0.2-0.1-0.3s0-0.2,0.1-0.3c0.1-0.1,0.2-0.1,0.3-0.1h0.2c0.1,0,0.2,0,0.3-0.1c0.1-0.1,0.1-0.2,0.1-0.3v-0.6l-1.1-1.3
			h-2.1c-0.1,0-0.2,0-0.3-0.1c-0.1-0.1-0.1-0.2-0.1-0.3s0-0.2,0.1-0.3C166.5,182.2,166.6,182.2,166.7,182.2z M168.8,177.4v2.3h0.6
			c0.1,0,0.3-0.1,0.4-0.2c0.1-0.2,0.2-0.3,0.2-0.4v-1c0-0.1,0-0.1,0-0.2s-0.1-0.1-0.2-0.2c-0.1-0.1-0.1-0.1-0.1-0.1
			c-0.1-0.1-0.2-0.1-0.3-0.1H168.8z M167.7,176.6h1.6c0.2,0,0.3,0,0.5,0.1c0.2,0.1,0.3,0.2,0.3,0.2c0.1,0.1,0.2,0.2,0.3,0.3
			c0.2,0.2,0.3,0.5,0.3,0.7v1c0,0.1,0,0.1,0,0.2c0,0,0,0.1,0,0.2c0,0.1,0,0.1,0,0.1c0,0,0,0.1-0.1,0.1c0,0.1-0.1,0.1-0.1,0.1
			c0,0,0,0.1-0.1,0.1c0,0.1-0.1,0.1-0.1,0.1c0,0,0,0-0.1,0.1l-0.1,0.1c-0.2,0.3-0.5,0.4-0.9,0.4h-1c-0.1,0-0.2,0-0.3-0.1
			c-0.1-0.1-0.1-0.2-0.1-0.3v-2.7h-0.2c-0.1,0-0.1,0-0.2,0c-0.1,0-0.1,0.1-0.1,0.1c0,0-0.1,0.1-0.1,0.1c0,0.1-0.1,0.1-0.1,0.1
			c-0.1,0.1-0.1,0.2-0.1,0.2v2c0,0.1,0,0.2-0.1,0.3c-0.1,0.1-0.2,0.1-0.3,0.1c-0.1,0-0.2,0-0.3-0.1c-0.1-0.1-0.1-0.2-0.1-0.3v-2
			c0-0.1,0-0.1,0-0.2c0,0,0-0.1,0-0.1c0,0,0-0.1,0-0.1c0,0,0-0.1,0.1-0.1c0,0,0-0.1,0.1-0.1c0,0,0-0.1,0.1-0.1c0,0,0.1-0.1,0.1-0.1
			c0,0,0,0,0.1-0.1c0,0,0.1-0.1,0.1-0.1C167.1,176.8,167.4,176.6,167.7,176.6z M168.1,171.9c-0.1,0-0.3,0.1-0.4,0.2
			c-0.1,0.2-0.2,0.3-0.2,0.4v0.6c0,0.1,0,0.2,0.1,0.2l0.6,0.7c0.1,0.1,0.2,0.1,0.3,0.1h0.6c0.1,0,0.2,0,0.3-0.1l0.6-0.7
			c0.1-0.1,0.1-0.1,0.1-0.2v-0.6c0-0.1,0-0.1-0.1-0.2c0-0.1-0.1-0.1-0.1-0.2c-0.1-0.1-0.1-0.1-0.1-0.1c-0.1-0.1-0.2-0.1-0.3-0.1
			H168.1z M168.1,171.1h1.3c0.1,0,0.1,0,0.2,0c0.1,0,0.1,0,0.1,0c0,0,0.1,0,0.1,0.1c0.1,0,0.1,0,0.1,0.1c0,0,0.1,0,0.1,0.1
			c0,0,0.1,0.1,0.1,0.1c0,0,0,0,0.1,0.1c0,0.1,0.1,0.1,0.1,0.1c0,0,0,0,0.1,0.1c0,0.1,0.1,0.1,0.1,0.1c0.2,0.2,0.3,0.5,0.3,0.7v0.6
			c0,0.1,0,0.2,0,0.2c0,0.1,0,0.1-0.1,0.2c0,0-0.1,0.1-0.1,0.2c-0.1,0.1-0.1,0.1-0.1,0.1c0,0-0.1,0.1-0.1,0.2
			c-0.1,0.1-0.1,0.1-0.1,0.1h0.1c0.1,0,0.2,0,0.3,0.1c0.1,0.1,0.1,0.2,0.1,0.3c0,0.1,0,0.2-0.1,0.3c-0.1,0.1-0.2,0.1-0.3,0.1h-4.2
			c-0.1,0-0.2,0-0.2,0c-0.1,0-0.1,0-0.2-0.1c-0.1,0-0.1-0.1-0.2-0.1c0,0-0.1-0.1-0.2-0.1c-0.1-0.1-0.1-0.1-0.1-0.1
			c0,0-0.1-0.1-0.1-0.2l-0.1-0.1c-0.2-0.2-0.3-0.5-0.3-0.7v-1.6c0-0.1,0-0.2,0.1-0.3c0.1-0.1,0.2-0.1,0.3-0.1c0.1,0,0.2,0,0.3,0.1
			c0.1,0.1,0.1,0.2,0.1,0.3v1.6c0,0.1,0,0.1,0.1,0.2c0,0.1,0.1,0.1,0.2,0.2c0.1,0.1,0.1,0.1,0.1,0.1c0.1,0.1,0.2,0.1,0.3,0.1h1.1
			c-0.1-0.1-0.2-0.2-0.3-0.3c-0.1-0.1-0.1-0.2-0.2-0.3c-0.1-0.1-0.1-0.3-0.1-0.4v-0.6c0-0.1,0-0.2,0-0.2c0-0.1,0-0.1,0.1-0.2
			c0,0,0.1-0.1,0.1-0.2c0.1-0.1,0.1-0.1,0.1-0.1c0,0,0.1-0.1,0.1-0.2l0.1-0.1C167.4,171.2,167.7,171.1,168.1,171.1z M168.1,166.3
			c-0.1,0-0.3,0.1-0.4,0.2c-0.1,0.2-0.2,0.3-0.2,0.4v0.6c0,0.1,0,0.2,0.1,0.2l0.6,0.7c0.1,0.1,0.2,0.1,0.3,0.1h0.6
			c0.1,0,0.2,0,0.3-0.1l0.6-0.7c0.1-0.1,0.1-0.1,0.1-0.2V167c0-0.1,0-0.1-0.1-0.2c0-0.1-0.1-0.1-0.1-0.2c-0.1-0.1-0.1-0.1-0.1-0.1
			c-0.1-0.1-0.2-0.1-0.3-0.1H168.1z M168.1,165.6h1.3c0.1,0,0.1,0,0.2,0c0.1,0,0.1,0,0.1,0c0,0,0.1,0,0.1,0.1c0.1,0,0.1,0,0.1,0.1
			c0,0,0.1,0,0.1,0.1c0,0,0.1,0.1,0.1,0.1c0,0,0,0,0.1,0.1c0,0.1,0.1,0.1,0.1,0.1c0,0,0,0,0.1,0.1c0,0.1,0.1,0.1,0.1,0.1
			c0.2,0.2,0.3,0.5,0.3,0.7v0.6c0,0.1,0,0.2,0,0.2c0,0.1,0,0.1-0.1,0.2c0,0-0.1,0.1-0.1,0.2c-0.1,0.1-0.1,0.1-0.1,0.1
			c0,0-0.1,0.1-0.1,0.2c-0.1,0.1-0.1,0.1-0.1,0.1h0.1c0.1,0,0.2,0,0.3,0.1c0.1,0.1,0.1,0.2,0.1,0.3c0,0.1,0,0.2-0.1,0.3
			c-0.1,0.1-0.2,0.1-0.3,0.1h-4.2c-0.1,0-0.2,0-0.2,0c-0.1,0-0.1,0-0.2-0.1c-0.1,0-0.1-0.1-0.2-0.1c0,0-0.1-0.1-0.2-0.1
			c-0.1-0.1-0.1-0.1-0.1-0.1c0,0-0.1-0.1-0.1-0.2l-0.1-0.1c-0.2-0.2-0.3-0.5-0.3-0.7v-1.6c0-0.1,0-0.2,0.1-0.3
			c0.1-0.1,0.2-0.1,0.3-0.1c0.1,0,0.2,0,0.3,0.1c0.1,0.1,0.1,0.2,0.1,0.3v1.6c0,0.1,0,0.1,0.1,0.2c0,0.1,0.1,0.1,0.2,0.2
			c0.1,0.1,0.1,0.1,0.1,0.1c0.1,0.1,0.2,0.1,0.3,0.1h1.1c-0.1-0.1-0.2-0.2-0.3-0.3c-0.1-0.1-0.1-0.2-0.2-0.3
			c-0.1-0.1-0.1-0.3-0.1-0.4V167c0-0.1,0-0.2,0-0.2s0-0.1,0.1-0.2c0,0,0.1-0.1,0.1-0.2c0.1-0.1,0.1-0.1,0.1-0.1c0,0,0.1-0.1,0.1-0.2
			l0.1-0.1C167.4,165.7,167.7,165.6,168.1,165.6z M172,161.1h0.3c0.1,0,0.2,0,0.3,0.1c0.1,0.1,0.1,0.2,0.1,0.3v0.4
			c0,0.1,0,0.2-0.1,0.3c-0.1,0.1-0.2,0.1-0.3,0.1H172c-0.1,0-0.2,0-0.3-0.1c-0.1-0.1-0.1-0.2-0.1-0.3v-0.4c0-0.1,0-0.2,0.1-0.3
			C171.8,161.2,171.9,161.1,172,161.1z M166.7,160.4c0.1,0,0.2,0,0.3,0.1c0.1,0.1,0.1,0.2,0.1,0.3v0.8h2.8v-0.8c0-0.1,0-0.2,0.1-0.3
			c0.1-0.1,0.2-0.1,0.3-0.1s0.2,0,0.3,0.1c0.1,0.1,0.1,0.2,0.1,0.3v1.1c0,0.1,0,0.2-0.1,0.3c-0.1,0.1-0.2,0.1-0.3,0.1h-3.2v0.8
			c0,0.1,0,0.2-0.1,0.3c-0.1,0.1-0.2,0.1-0.3,0.1c-0.1,0-0.2,0-0.3-0.1c-0.1-0.1-0.1-0.2-0.1-0.3v-2.3c0-0.1,0-0.2,0.1-0.3
			C166.5,160.4,166.6,160.4,166.7,160.4z M166.7,154.5h3.6c0.1,0,0.2,0,0.3,0.1c0.1,0.1,0.1,0.2,0.1,0.3s0,0.2-0.1,0.3
			c-0.1,0.1-0.2,0.1-0.3,0.1h-0.5l0.8,0.9c0,0.1,0.1,0.1,0.1,0.2v0.8c0,0.3-0.1,0.6-0.3,0.8c-0.2,0.2-0.5,0.3-0.8,0.3h-0.2
			c-0.1,0-0.2,0-0.3-0.1c-0.1-0.1-0.1-0.2-0.1-0.3s0-0.2,0.1-0.3c0.1-0.1,0.2-0.1,0.3-0.1h0.2c0.1,0,0.2,0,0.3-0.1
			c0.1-0.1,0.1-0.2,0.1-0.3v-0.6l-1.1-1.3h-2.1c-0.1,0-0.2,0-0.3-0.1c-0.1-0.1-0.1-0.2-0.1-0.3s0-0.2,0.1-0.3
			C166.5,154.5,166.6,154.5,166.7,154.5z M171.3,148.9h1v3.8h-1c-0.1,0-0.2,0-0.3-0.1c-0.1-0.1-0.1-0.2-0.1-0.3c0-0.1,0-0.2,0.1-0.3
			c0.1-0.1,0.2-0.1,0.3-0.1h0.3v-0.8h-4.8c-0.1,0-0.2,0-0.3-0.1c-0.1-0.1-0.1-0.2-0.1-0.3c0-0.1,0-0.2,0.1-0.3
			c0.1-0.1,0.2-0.1,0.3-0.1h4.8v-0.7h-0.3c-0.1,0-0.2,0-0.3-0.1c-0.1-0.1-0.1-0.2-0.1-0.3c0-0.1,0-0.2,0.1-0.3
			C171.1,148.9,171.2,148.9,171.3,148.9z M170.6,137.8h1.4c0.1,0,0.2,0,0.3,0.1c0.1,0.1,0.1,0.2,0.1,0.3c0,0.1,0,0.2-0.1,0.3
			c-0.1,0.1-0.2,0.1-0.3,0.1h-1.2l-2.9,1.1l2.9,1.1h1.2c0.1,0,0.2,0,0.3,0.1c0.1,0.1,0.1,0.2,0.1,0.3s0,0.2-0.1,0.3
			c-0.1,0.1-0.2,0.1-0.3,0.1h-1.4l-4-1.6c-0.2-0.1-0.2-0.2-0.2-0.4c0-0.2,0.1-0.3,0.2-0.4L170.6,137.8z M168.4,133.6v1.3l2.1-0.6
			L168.4,133.6z M166.7,132.2l5.3,1.6c0.1,0,0.1,0.1,0.2,0.1c0.1,0.1,0.1,0.1,0.1,0.2c0,0.1,0,0.2-0.1,0.2c-0.1,0.1-0.1,0.1-0.2,0.1
			l-5.3,1.6c-0.1,0-0.2,0-0.3-0.1c-0.1-0.1-0.1-0.2-0.1-0.3c0-0.1,0-0.2,0.1-0.2c0.1-0.1,0.1-0.1,0.2-0.1l1-0.3v-1.7l-1-0.3
			c-0.1,0-0.1-0.1-0.2-0.1c-0.1-0.1-0.1-0.1-0.1-0.2c0-0.1,0-0.2,0.1-0.3C166.5,132.3,166.6,132.2,166.7,132.2z M167.3,126.7h4.7
			c0.1,0,0.2,0,0.3,0.1c0.1,0.1,0.1,0.2,0.1,0.3c0,0.1,0,0.2-0.1,0.3c-0.1,0.1-0.2,0.1-0.3,0.1h-4.5l-0.4,0.2v0.3c0,0,0.1,0,0.2,0.1
			c0.1,0.1,0.2,0.1,0.2,0.1h2.5c0.1,0,0.2,0,0.3,0.1c0.1,0.1,0.1,0.2,0.1,0.3c0,0.1,0,0.2-0.1,0.3c-0.1,0.1-0.2,0.1-0.3,0.1h-2.5
			c-0.1,0-0.1,0.1-0.2,0.1c-0.1,0.1-0.2,0.1-0.2,0.1v0.3l0.4,0.2h4.5c0.1,0,0.2,0,0.3,0.1c0.1,0.1,0.1,0.2,0.1,0.3s0,0.2-0.1,0.3
			c-0.1,0.1-0.2,0.1-0.3,0.1h-4.7l-0.7-0.4c-0.1-0.1-0.2-0.2-0.2-0.3V129c0-0.2,0.1-0.3,0.3-0.4c-0.2-0.1-0.3-0.2-0.3-0.4v-0.7
			c0-0.2,0.1-0.3,0.2-0.3L167.3,126.7z"/>
		<path class="st36" d="M158.5,184.5c0.1,0,0.2,0,0.3,0.1c0.1,0.1,0.1,0.2,0.1,0.3c0,0.1,0,0.2-0.1,0.3c-0.1,0.1-0.1,0.2-0.1,0.2
			c0,0,0,0,0,0.1c0,0.1,0,0.1,0,0.1v1.5c0,0.1,0,0.2,0.1,0.3c0.1,0.1,0.2,0.1,0.3,0.1c0.2,0,0.3-0.1,0.4-0.2l0.9-2.1
			c0.1-0.2,0.2-0.3,0.4-0.4c0.2-0.1,0.4-0.2,0.5-0.2c0.3,0,0.5,0.1,0.7,0.3c0.2,0.2,0.3,0.4,0.3,0.7v1.6c0,0.4-0.2,0.7-0.5,0.9
			c-0.1,0.1-0.1,0.1-0.2,0.1c-0.1,0-0.2,0-0.3-0.1c-0.1-0.1-0.1-0.2-0.1-0.3c0-0.1,0.1-0.2,0.2-0.3c0.1-0.1,0.2-0.2,0.2-0.3v-1.6
			c0-0.1,0-0.1-0.1-0.2c0,0-0.1-0.1-0.2-0.1c-0.1,0-0.2,0-0.2,0.1l-0.9,2.1c-0.1,0.2-0.2,0.4-0.4,0.5c-0.2,0.1-0.4,0.2-0.6,0.2h0
			c-0.3,0-0.6-0.1-0.8-0.3c-0.2-0.2-0.3-0.5-0.3-0.8v-1.4c0-0.4,0.1-0.7,0.4-1C158.2,184.5,158.3,184.5,158.5,184.5z M159.5,179h0.9
			c0.3,0,0.6,0.1,0.9,0.4c0,0.1,0.1,0.1,0.3,0.3c0.1,0.1,0.2,0.2,0.3,0.3c0.1,0.1,0.1,0.2,0.2,0.3c0.1,0.1,0.1,0.3,0.1,0.5v1.6
			c0,0.1,0,0.2-0.1,0.3s-0.2,0.1-0.3,0.1s-0.2,0-0.3-0.1c-0.1-0.1-0.1-0.2-0.1-0.3v-1.6c0-0.1,0-0.2-0.1-0.2l-0.6-0.7
			c-0.1-0.1-0.1-0.1-0.3-0.1h-0.9c-0.1,0-0.2,0-0.3,0.1l-0.6,0.7c-0.1,0.1-0.1,0.1-0.1,0.2v1.6c0,0.1,0,0.2-0.1,0.3
			c-0.1,0.1-0.2,0.1-0.3,0.1c-0.1,0-0.2,0-0.3-0.1c-0.1-0.1-0.1-0.2-0.1-0.3v-1.6c0-0.3,0.1-0.5,0.3-0.7l0.6-0.7
			C158.8,179.1,159.1,179,159.5,179z M163.3,174.7h0.3c0.1,0,0.2,0,0.3,0.1c0.1,0.1,0.1,0.2,0.1,0.3v0.4c0,0.1,0,0.2-0.1,0.3
			s-0.2,0.1-0.3,0.1h-0.3c-0.1,0-0.2,0-0.3-0.1c-0.1-0.1-0.1-0.2-0.1-0.3v-0.4c0-0.1,0-0.2,0.1-0.3
			C163.1,174.7,163.2,174.7,163.3,174.7z M158.1,173.9c0.1,0,0.2,0,0.3,0.1c0.1,0.1,0.1,0.2,0.1,0.3v0.7h2.8v-0.7
			c0-0.1,0-0.2,0.1-0.3c0.1-0.1,0.2-0.1,0.3-0.1s0.2,0,0.3,0.1c0.1,0.1,0.1,0.2,0.1,0.3v1.1c0,0.1,0,0.2-0.1,0.3s-0.2,0.1-0.3,0.1
			h-3.1v0.7c0,0.1,0,0.2-0.1,0.3c-0.1,0.1-0.2,0.1-0.3,0.1c-0.1,0-0.2,0-0.3-0.1c-0.1-0.1-0.1-0.2-0.1-0.3v-2.2c0-0.1,0-0.2,0.1-0.3
			C157.9,174,158,173.9,158.1,173.9z M158.1,168.1h3.5c0.1,0,0.2,0,0.3,0.1s0.1,0.2,0.1,0.3c0,0.1,0,0.2-0.1,0.3
			c-0.1,0.1-0.2,0.1-0.3,0.1h-0.3l0.5,0.7c0.1,0.2,0.2,0.4,0.2,0.6v0.4c0,0.3-0.1,0.6-0.3,0.8c-0.2,0.2-0.5,0.3-0.8,0.3l-2.8,0.1
			c-0.1,0-0.2,0-0.3-0.1c-0.1-0.1-0.1-0.2-0.1-0.3c0-0.1,0-0.2,0.1-0.3c0.1-0.1,0.2-0.1,0.3-0.1l2.8-0.1c0.1,0,0.2,0,0.2-0.1
			c0.1-0.1,0.1-0.2,0.1-0.3v-0.5l-0.8-1.2h-2.4c-0.1,0-0.2,0-0.3-0.1c-0.1-0.1-0.1-0.2-0.1-0.3c0-0.1,0-0.2,0.1-0.3
			C157.9,168.2,158,168.1,158.1,168.1z M159.1,163.4c-0.1,0-0.1,0-0.2,0s-0.1,0.1-0.1,0.1c0,0-0.1,0.1-0.1,0.1
			c0,0.1-0.1,0.1-0.1,0.1c-0.1,0.1-0.1,0.2-0.1,0.2v0.9c0,0.1,0,0.1,0,0.2c0,0.1,0.1,0.1,0.2,0.2c0.1,0.1,0.1,0.1,0.1,0.1
			c0.1,0.1,0.2,0.1,0.3,0.1h1.6c0.1,0,0.3-0.1,0.4-0.2c0.1-0.2,0.2-0.3,0.2-0.4v-0.9c0-0.1,0-0.1,0-0.2c0-0.1-0.1-0.1-0.2-0.2
			c-0.1-0.1-0.1-0.1-0.1-0.1c-0.1-0.1-0.2-0.1-0.3-0.1H159.1z M159.1,162.7h1.6c0.2,0,0.3,0,0.5,0.1c0.2,0.1,0.3,0.2,0.3,0.2
			c0.1,0.1,0.2,0.2,0.3,0.3c0.2,0.2,0.3,0.5,0.3,0.7v0.9c0,0.1,0,0.1,0,0.2c0,0.1,0,0.1-0.1,0.2s0,0.1-0.1,0.1c0,0,0,0.1-0.1,0.1
			c0,0.1-0.1,0.1-0.1,0.1c0,0,0,0.1-0.1,0.1c-0.1,0.1-0.1,0.1-0.1,0.1c-0.2,0.3-0.5,0.4-0.9,0.4h-1.6c-0.1,0-0.2,0-0.2,0
			s-0.1,0-0.2-0.1c-0.1,0-0.1-0.1-0.2-0.1c0,0-0.1-0.1-0.2-0.1c-0.1-0.1-0.1-0.1-0.1-0.1s-0.1-0.1-0.1-0.1l-0.1-0.1
			c-0.2-0.2-0.3-0.5-0.3-0.7v-0.9c0-0.1,0-0.2,0-0.2c0-0.1,0-0.1,0.1-0.2c0-0.1,0-0.1,0.1-0.2c0-0.1,0.1-0.1,0.1-0.1
			s0.1-0.1,0.1-0.1c0.1-0.1,0.1-0.1,0.1-0.1C158.5,162.8,158.8,162.7,159.1,162.7z M158.5,157.2c0.1,0,0.2,0,0.3,0.1
			c0.1,0.1,0.1,0.2,0.1,0.3c0,0.1,0,0.2-0.1,0.3c-0.1,0.1-0.1,0.2-0.1,0.2c0,0,0,0,0,0.1c0,0.1,0,0.1,0,0.1v1.5c0,0.1,0,0.2,0.1,0.3
			c0.1,0.1,0.2,0.1,0.3,0.1c0.2,0,0.3-0.1,0.4-0.2l0.9-2.1c0.1-0.2,0.2-0.3,0.4-0.4c0.2-0.1,0.4-0.2,0.5-0.2c0.3,0,0.5,0.1,0.7,0.3
			c0.2,0.2,0.3,0.4,0.3,0.7v1.6c0,0.4-0.2,0.7-0.5,0.9c-0.1,0.1-0.1,0.1-0.2,0.1c-0.1,0-0.2,0-0.3-0.1c-0.1-0.1-0.1-0.2-0.1-0.3
			c0-0.1,0.1-0.2,0.2-0.3c0.1-0.1,0.2-0.2,0.2-0.3v-1.6c0-0.1,0-0.1-0.1-0.2c0,0-0.1-0.1-0.2-0.1c-0.1,0-0.2,0-0.2,0.1l-0.9,2.1
			c-0.1,0.2-0.2,0.4-0.4,0.5c-0.2,0.1-0.4,0.2-0.6,0.2h0c-0.3,0-0.6-0.1-0.8-0.3c-0.2-0.2-0.3-0.5-0.3-0.8v-1.4c0-0.4,0.1-0.7,0.4-1
			C158.2,157.3,158.3,157.2,158.5,157.2z M161.4,151.9c0.1-0.1,0.2-0.1,0.3-0.1s0.2,0,0.3,0.1s0.1,0.2,0.1,0.3v0.4h0.9
			c0.1,0,0.2,0,0.3,0.1c0.1,0.1,0.1,0.2,0.1,0.3c0,0.1,0,0.2-0.1,0.3c-0.1,0.1-0.2,0.1-0.3,0.1h-0.9v1.5c0,0.1,0,0.2-0.1,0.3
			s-0.2,0.1-0.3,0.1s-0.2,0-0.3-0.1c-0.1-0.1-0.1-0.2-0.1-0.3v-1.5h-2.4c-0.1,0-0.2,0-0.3,0.1c-0.1,0.1-0.1,0.2-0.1,0.3v0.8
			c0,0.1,0,0.2,0.1,0.2c0.1,0.1,0.1,0.1,0.2,0.1c0.1,0,0.2,0.1,0.2,0.1c0.1,0.1,0.1,0.1,0.1,0.2c0,0.1,0,0.2-0.1,0.3
			c-0.1,0.1-0.2,0.1-0.3,0.1h-0.1c-0.3-0.1-0.5-0.2-0.7-0.4c-0.2-0.2-0.3-0.5-0.3-0.7v-0.8c0-0.3,0.1-0.6,0.3-0.8
			c0.2-0.2,0.5-0.3,0.8-0.3h2.4v-0.4C161.3,152,161.3,152,161.4,151.9z M158.1,146.3h3.5c0.1,0,0.2,0,0.3,0.1s0.1,0.2,0.1,0.3
			c0,0.1,0,0.2-0.1,0.3s-0.2,0.1-0.3,0.1h-0.4l0.8,0.9c0,0.1,0.1,0.1,0.1,0.2v0.7c0,0.3-0.1,0.6-0.3,0.8c-0.2,0.2-0.5,0.3-0.8,0.3
			h-0.2c-0.1,0-0.2,0-0.3-0.1c-0.1-0.1-0.1-0.2-0.1-0.3s0-0.2,0.1-0.3c0.1-0.1,0.2-0.1,0.3-0.1h0.2c0.1,0,0.2,0,0.3-0.1
			c0.1-0.1,0.1-0.2,0.1-0.3v-0.6l-1.1-1.3h-2.1c-0.1,0-0.2,0-0.3-0.1c-0.1-0.1-0.1-0.2-0.1-0.3c0-0.1,0-0.2,0.1-0.3
			C157.9,146.4,158,146.3,158.1,146.3z M160.1,141.6v2.2h0.6c0.1,0,0.3-0.1,0.4-0.2s0.2-0.3,0.2-0.4v-0.9c0-0.1,0-0.1,0-0.2
			c0-0.1-0.1-0.1-0.2-0.2c-0.1-0.1-0.1-0.1-0.1-0.1c-0.1-0.1-0.2-0.1-0.3-0.1H160.1z M159.1,140.9h1.6c0.2,0,0.3,0,0.5,0.1
			c0.2,0.1,0.3,0.2,0.3,0.2c0.1,0.1,0.2,0.2,0.3,0.3c0.2,0.2,0.3,0.5,0.3,0.7v0.9c0,0.1,0,0.1,0,0.1c0,0,0,0.1,0,0.1
			c0,0.1,0,0.1,0,0.1c0,0,0,0.1-0.1,0.1c0,0.1-0.1,0.1-0.1,0.1c0,0,0,0.1-0.1,0.1c0,0.1-0.1,0.1-0.1,0.1c0,0,0,0-0.1,0.1l-0.1,0.1
			c-0.2,0.3-0.5,0.4-0.9,0.4h-0.9c-0.1,0-0.2,0-0.3-0.1c-0.1-0.1-0.1-0.2-0.1-0.3v-2.6h-0.2c-0.1,0-0.1,0-0.2,0s-0.1,0.1-0.1,0.1
			c0,0-0.1,0.1-0.1,0.1c0,0.1-0.1,0.1-0.1,0.1c-0.1,0.1-0.1,0.2-0.1,0.2v2c0,0.1,0,0.2-0.1,0.3c-0.1,0.1-0.2,0.1-0.3,0.1
			c-0.1,0-0.2,0-0.3-0.1c-0.1-0.1-0.1-0.2-0.1-0.3v-2c0-0.1,0-0.1,0-0.2c0,0,0-0.1,0-0.1c0,0,0-0.1,0-0.1c0,0,0-0.1,0.1-0.1
			c0,0,0-0.1,0.1-0.1c0,0,0-0.1,0.1-0.1s0.1-0.1,0.1-0.1c0,0,0,0,0.1-0.1c0,0,0.1-0.1,0.1-0.1C158.5,141,158.8,140.9,159.1,140.9z
			 M159.5,136.2c-0.1,0-0.2,0-0.3,0.1l-0.6,0.7c-0.1,0.1-0.1,0.1-0.1,0.2v0.6c0,0.1,0,0.1,0,0.2c0,0.1,0.1,0.1,0.2,0.2
			c0.1,0.1,0.1,0.1,0.1,0.1c0.1,0.1,0.2,0.1,0.3,0.1h1.6c0.1,0,0.1,0,0.2,0c0.1,0,0.1-0.1,0.2-0.2c0.1-0.1,0.1-0.1,0.1-0.1
			c0.1-0.1,0.1-0.2,0.1-0.3v-0.6c0-0.1,0-0.2-0.1-0.2l-0.6-0.7c-0.1-0.1-0.1-0.1-0.3-0.1H159.5z M158.1,135.4h5.1
			c0.1,0,0.2,0,0.3,0.1c0.1,0.1,0.1,0.2,0.1,0.3c0,0.1,0,0.2-0.1,0.3c-0.1,0.1-0.2,0.1-0.3,0.1h-1.7c0.3,0.3,0.5,0.7,0.5,1v0.6
			c0,0.1,0,0.1,0,0.2c0,0.1,0,0.1-0.1,0.2c0,0.1,0,0.1-0.1,0.1c0,0,0,0.1-0.1,0.1c0,0.1-0.1,0.1-0.1,0.1c0,0,0,0.1-0.1,0.1
			c-0.1,0.1-0.1,0.1-0.1,0.1c-0.2,0.3-0.5,0.4-0.9,0.4h-1.6c-0.1,0-0.2,0-0.2,0c-0.1,0-0.1,0-0.2-0.1c-0.1,0-0.1-0.1-0.2-0.1
			c0,0-0.1-0.1-0.2-0.1c-0.1-0.1-0.1-0.1-0.1-0.1s-0.1-0.1-0.1-0.1l-0.1-0.1c-0.2-0.2-0.3-0.5-0.3-0.7v-0.6c0-0.1,0-0.3,0.1-0.4
			c0.1-0.1,0.1-0.2,0.2-0.3s0.1-0.2,0.2-0.3h-0.1c-0.1,0-0.2,0-0.3-0.1c-0.1-0.1-0.1-0.2-0.1-0.3c0-0.1,0-0.2,0.1-0.3
			C157.9,135.5,158,135.4,158.1,135.4z M159.1,130.7c-0.1,0-0.1,0-0.2,0s-0.1,0.1-0.1,0.1c0,0-0.1,0.1-0.1,0.1
			c0,0.1-0.1,0.1-0.1,0.1c-0.1,0.1-0.1,0.2-0.1,0.2v0.9c0,0.1,0,0.1,0,0.2c0,0.1,0.1,0.1,0.2,0.2c0.1,0.1,0.1,0.1,0.1,0.1
			c0.1,0.1,0.2,0.1,0.3,0.1h1.6c0.1,0,0.3-0.1,0.4-0.2c0.1-0.2,0.2-0.3,0.2-0.4v-0.9c0-0.1,0-0.1,0-0.2c0-0.1-0.1-0.1-0.2-0.2
			c-0.1-0.1-0.1-0.1-0.1-0.1c-0.1-0.1-0.2-0.1-0.3-0.1H159.1z M159.1,130h1.6c0.2,0,0.3,0,0.5,0.1c0.2,0.1,0.3,0.2,0.3,0.2
			c0.1,0.1,0.2,0.2,0.3,0.3c0.2,0.2,0.3,0.5,0.3,0.7v0.9c0,0.1,0,0.1,0,0.2c0,0.1,0,0.1-0.1,0.2s0,0.1-0.1,0.1c0,0,0,0.1-0.1,0.1
			c0,0.1-0.1,0.1-0.1,0.1c0,0,0,0.1-0.1,0.1c-0.1,0.1-0.1,0.1-0.1,0.1c-0.2,0.3-0.5,0.4-0.9,0.4h-1.6c-0.1,0-0.2,0-0.2,0
			c-0.1,0-0.1,0-0.2-0.1c-0.1,0-0.1-0.1-0.2-0.1c0,0-0.1-0.1-0.2-0.1c-0.1-0.1-0.1-0.1-0.1-0.1c0,0-0.1-0.1-0.1-0.1l-0.1-0.1
			c-0.2-0.2-0.3-0.5-0.3-0.7v-0.9c0-0.1,0-0.2,0-0.2c0-0.1,0-0.1,0.1-0.2c0-0.1,0-0.1,0.1-0.2c0-0.1,0.1-0.1,0.1-0.1
			s0.1-0.1,0.1-0.1s0.1-0.1,0.1-0.1C158.5,130.1,158.8,130,159.1,130z M158.1,124.5h3.5c0.1,0,0.2,0,0.3,0.1
			c0.1,0.1,0.1,0.2,0.1,0.3s0,0.2-0.1,0.3s-0.2,0.1-0.3,0.1h-0.4l0.8,0.9c0,0.1,0.1,0.1,0.1,0.2v0.7c0,0.3-0.1,0.6-0.3,0.8
			c-0.2,0.2-0.5,0.3-0.8,0.3h-0.2c-0.1,0-0.2,0-0.3-0.1c-0.1-0.1-0.1-0.2-0.1-0.3c0-0.1,0-0.2,0.1-0.3c0.1-0.1,0.2-0.1,0.3-0.1h0.2
			c0.1,0,0.2,0,0.3-0.1c0.1-0.1,0.1-0.2,0.1-0.3v-0.6l-1.1-1.3h-2.1c-0.1,0-0.2,0-0.3-0.1c-0.1-0.1-0.1-0.2-0.1-0.3s0-0.2,0.1-0.3
			C157.9,124.6,158,124.5,158.1,124.5z"/>
		<path class="st49" d="M172.5,211.2v2.2 M172.2,210.7v3.2 M172,210.4v3.9 M171.7,210.1v3.1 M171.5,209.9v2.9 M171.3,209.8v2.9
			 M171,209.7v2.9 M170.8,209.6v2.9 M170.5,209.6v3 M170.3,209.6v3.1 M170,215.2v0.1 M170,209.6v3.2 M169.8,215.2v0.5 M169.8,209.6
			v3.4 M169.6,215.2v0.7 M169.6,209.7v3.5 M169.3,215.1v1.1 M169.3,209.8v3.8 M169.1,214.8v1.5 M169.1,210v4.1 M168.8,210.2v6.3
			 M168.6,210.3v6.3 M168.3,210.5v6.2 M168.1,210.8v6 M167.8,211v5.9 M167.6,211.2v5.7 M167.4,211.4v5.6 M167.4,207.7v1.7
			 M167.1,211.5v5.5 M167.1,207.3v1.7 M166.9,211.6v5.5 M166.9,206.9v1.8 M166.6,211.6v5.5 M166.6,206.8v1.8 M166.4,211.6v5.6
			 M166.4,206.6v2 M166.1,211.5v5.6 M166.1,206.5v2.1 M165.9,211.3v5.8 M165.9,206.5v2.4 M165.7,211v6.1 M165.7,206.4v2.7
			 M165.4,210.3v6.7 M165.4,206.4v3.3 M165.2,206.3V217 M164.9,206.3v10.6 M164.7,206.3v10.5 M164.4,206.3v10.5 M164.2,206.3v10.4
			 M164,206.3v10.2 M163.7,206.3v10.1 M163.5,206.3v10 M163.2,206.3v9.8 M163,206.3v9.7 M162.7,206.3v9.5 M162.5,206.3v9.3
			 M162.3,206.3v9 M162,206.3v8.8 M161.8,206.3v8.5 M161.5,206.3v8.2 M161.3,206.3v7.8 M161,206.3v7.3 M160.8,206.3v6.6
			 M160.6,206.3v4.1 M160.3,206.3v3.6 M160.1,206.3v3.2 M159.8,206.3v3 M159.6,206.3v2.7 M159.3,206.3v2.5 M159.1,206.3v2.3
			 M158.9,206.3v2.1 M158.6,206.3v1.9 M158.4,206.3v1.7 M158.1,206.3v1.4 M157.9,206.3v1.2 M157.6,206.3v1 M157.4,206.3v0.8
			 M157.2,206.3v0.5 M156.9,206.3v0.4 M156.7,206.3v0.1 M169.8,215.7l0.3-0.5 M169.2,216.2l0.5-0.5 M168.5,216.6l0.7-0.4 M167.6,217
			l0.9-0.3 M166.6,217.1l1-0.2 M165.4,217.1l1.1,0.1 M164.3,216.7l1.2,0.3 M163.1,216.1l1.1,0.6 M162.5,215.7l0.6,0.4 M162,215.2
			l0.5,0.5 M161.6,214.6l0.4,0.5 M161.2,214l0.4,0.6 M160.9,213.4l0.3,0.6 M160.7,212.7l0.2,0.7 M160.6,211.9l0.1,0.8 M160.6,210.7
			v1.2 M160.5,210.3l0.1,0.4 M160.4,210l0.2,0.3 M160.1,209.7l0.2,0.4 M159.9,209.3l0.3,0.3 M159.5,209l0.4,0.3 M159.1,208.6
			l0.4,0.4 M158.7,208.3l0.4,0.4 M158.2,207.9l0.4,0.4 M157.9,207.5l0.4,0.4 M157.5,207.2l0.4,0.4 M157.2,206.9l0.3,0.3
			 M156.9,206.7l0.3,0.2 M156.6,206.5l0.2,0.2 M156.5,206.4l0.1,0.1 M156.4,206.3L156.4,206.3 M165.3,206.3h-8.8 M165.8,206.4
			l-0.5-0.1 M166.2,206.6l-0.4-0.2 M166.6,206.7l-0.4-0.2 M166.9,207l-0.3-0.2 M167.1,207.2l-0.2-0.3 M167.3,207.5l-0.2-0.3
			 M167.4,207.8l-0.1-0.3 M167.5,208.2l-0.1-0.3 M167.6,208.5l-0.1-0.4 M167.6,209.1v-0.5 M167.6,209.3l0-0.2 M167.5,209.4l0.1-0.2
			 M167.5,209.5L167.5,209.5 M167.5,209.6L167.5,209.6 M167.5,209.6L167.5,209.6 M167.4,209.5L167.4,209.5 M167.4,209.3l0,0.1
			 M167.3,209.2l0.1,0.1 M167.2,209.1l0.1,0.2 M167.1,208.9l0.1,0.2 M166.9,208.8l0.1,0.1 M166.8,208.7l0.2,0.1 M166.6,208.6
			l0.2,0.1 M166.4,208.6h0.2 M166.2,208.7l0.2-0.1 M166,208.8l0.2-0.1 M165.8,209l0.2-0.2 M165.6,209.2l0.2-0.2 M165.5,209.5
			l0.1-0.3 M165.4,209.8l0.1-0.4 M165.4,210.3l0-0.5 M165.5,210.8l-0.1-0.5 M165.8,211.2l-0.2-0.4 M166.1,211.4l-0.4-0.3
			 M166.5,211.6l-0.4-0.2 M166.9,211.6l-0.4,0 M167.4,211.4l-0.5,0.2 M167.9,211l-0.5,0.4 M168.4,210.4l-0.5,0.5 M169,210l-0.6,0.4
			 M169.6,209.7L169,210 M170.1,209.6l-0.6,0.1 M170.7,209.6h-0.5 M171.2,209.7l-0.5-0.2 M171.7,210.1l-0.5-0.4 M172.2,210.6
			l-0.5-0.5 M172.5,211.4l-0.4-0.7 M172.7,212.1l-0.2-0.7 M172.7,212.7l0-0.6 M172.5,213.3l0.1-0.6 M172.3,213.7l0.2-0.5
			 M172.1,214.1l0.2-0.4 M171.9,214.4l0.2-0.3 M171.9,214.4L171.9,214.4 M171.9,214.4L171.9,214.4 M171.9,214.3l0,0.1 M171.9,214.1
			l0,0.2 M171.9,213.9v0.2 M171.9,213.6l0,0.3 M171.8,213.3l0.1,0.3 M171.7,213.1l0.1,0.3 M171.5,212.9l0.2,0.2 M171.3,212.7
			l0.2,0.2 M171.1,212.6l0.2,0.1 M170.9,212.5l0.2,0.1 M170.6,212.5h0.4 M170.4,212.6l0.2-0.1 M170.1,212.7l0.2-0.1 M169.9,212.9
			l0.2-0.2 M169.7,213.1l0.2-0.2 M169.5,213.3l0.2-0.2 M169.4,213.5l0.2-0.2 M169.2,213.7l0.1-0.2 M169.1,214l0.1-0.3 M169,214.2
			l0.1-0.3 M169,214.4l0-0.2 M169,214.6v-0.2 M169.1,214.9l-0.1-0.2 M169.2,215l-0.1-0.2 M169.4,215.1l-0.2-0.1 M169.6,215.2
			l-0.2-0.1 M169.9,215.2h-0.4 M170,215.1L170,215.1 M170.1,215.1L170.1,215.1"/>
	</g>
</g>
</svg>
